<svg width="364" height="408" viewBox="0 0 364 408" fill="none" xmlns="http://www.w3.org/2000/svg">
<g clip-path="url(#clip0_1782_5165)">
<rect width="364" height="408" rx="35" fill="url(#paint0_radial_1782_5165)"/>
<g filter="url(#filter0_b_1782_5165)">
<rect x="-22.5625" y="102.891" width="116.055" height="100.932" rx="12" transform="rotate(-33.7046 -22.5625 102.891)" fill="#B4FFA1"/>
</g>
<g filter="url(#filter1_b_1782_5165)">
<rect x="148.049" y="178.777" width="116.055" height="100.932" rx="12" transform="rotate(-33.7046 148.049 178.777)" fill="#B4FFA1"/>
</g>
<g filter="url(#filter2_b_1782_5165)">
<rect x="-18.5215" y="288.918" width="116.055" height="100.932" rx="12" transform="rotate(-33.7046 -18.5215 288.918)" fill="#B4FFA1"/>
</g>
<g filter="url(#filter3_b_1782_5165)">
<rect x="213.125" y="358.113" width="116.055" height="100.932" rx="12" transform="rotate(-33.7046 213.125 358.113)" fill="#B4FFA1"/>
</g>
<g filter="url(#filter4_b_1782_5165)">
<rect x="141.973" y="-0.257812" width="116.055" height="100.932" rx="12" transform="rotate(-33.7046 141.973 -0.257812)" fill="#B4FFA1"/>
</g>
<g clip-path="url(#clip1_1782_5165)">
<path d="M283.157 358.924C280.287 360.859 279.528 364.768 281.463 367.637C283.398 370.507 287.307 371.266 290.177 369.331C293.046 367.396 293.806 363.487 291.87 360.617C289.935 357.748 286.026 356.988 283.157 358.924ZM288.938 367.494C287.081 368.747 284.552 368.255 283.3 366.398C282.047 364.542 282.539 362.013 284.396 360.76C286.252 359.508 288.782 360 290.034 361.856C291.286 363.713 290.794 366.242 288.938 367.494Z" fill="#6FC758"/>
<path d="M307.06 370.591C306.361 371.063 305.899 371.755 305.703 372.513L301.897 372.842L299.844 369.798C300.115 369.641 300.316 369.373 300.379 369.05L301.224 364.7C301.321 364.201 301.066 363.701 300.606 363.485L298.749 362.618C298.672 362.005 298.547 361.396 298.376 360.797L299.748 359.272C300.088 358.894 300.127 358.333 299.843 357.912L297.365 354.238C297.081 353.817 296.547 353.643 296.069 353.817L294.14 354.517C293.649 354.135 293.132 353.791 292.592 353.49L292.483 351.443C292.456 350.936 292.087 350.512 291.589 350.415L287.239 349.57C286.74 349.473 286.24 349.728 286.024 350.188L285.157 352.045C284.544 352.122 283.935 352.246 283.336 352.417L281.811 351.045C281.433 350.705 280.872 350.666 280.451 350.951L276.778 353.428C276.356 353.713 276.182 354.247 276.356 354.725L277.056 356.653C276.674 357.144 276.33 357.662 276.03 358.202L273.983 358.31C273.475 358.337 273.051 358.706 272.954 359.205L272.109 363.554C272.012 364.053 272.267 364.554 272.727 364.769L274.584 365.637C274.661 366.25 274.786 366.859 274.956 367.457L273.585 368.983C273.245 369.361 273.206 369.921 273.49 370.343L275.967 374.016C276.252 374.438 276.786 374.611 277.264 374.438L279.192 373.737C279.683 374.12 280.201 374.464 280.741 374.764L280.85 376.811C280.876 377.319 281.245 377.743 281.744 377.84L286.094 378.685C286.417 378.748 286.741 378.662 286.988 378.469L289.041 381.514L287.31 384.919C286.534 384.817 285.719 384.986 285.02 385.457C283.501 386.482 283.099 388.551 284.124 390.07C285.148 391.589 287.218 391.991 288.737 390.967C290.256 389.942 290.658 387.873 289.634 386.354C289.528 386.197 289.411 386.054 289.285 385.921L291.311 381.936C291.493 381.578 291.467 381.149 291.242 380.815L288.159 376.245L288.176 376.209C288.789 376.133 289.398 376.008 289.996 375.837L291.522 377.209C291.9 377.549 292.461 377.588 292.882 377.304L293.8 376.685L295.228 378.802C294.415 379.902 294.336 381.44 295.143 382.637C296.168 384.156 298.237 384.559 299.756 383.534C301.275 382.509 301.678 380.44 300.653 378.921C299.846 377.724 298.389 377.221 297.065 377.563L295.637 375.446L296.555 374.826C296.977 374.542 297.15 374.008 296.977 373.53L296.276 371.602C296.659 371.111 297.002 370.593 297.303 370.053L297.342 370.051L300.425 374.621C300.65 374.955 301.038 375.14 301.439 375.105L305.892 374.72C305.968 374.886 306.057 375.048 306.163 375.204C307.187 376.723 309.257 377.126 310.776 376.101C312.295 375.077 312.697 373.007 311.673 371.488C310.648 369.969 308.579 369.567 307.06 370.591ZM287.498 389.13C286.992 389.472 286.302 389.338 285.96 388.831C285.619 388.325 285.753 387.635 286.259 387.294C286.766 386.952 287.455 387.086 287.797 387.592C288.138 388.099 288.004 388.789 287.498 389.13ZM298.518 381.697C298.011 382.039 297.321 381.905 296.98 381.398C296.638 380.892 296.772 380.202 297.279 379.861C297.785 379.519 298.475 379.653 298.816 380.16C299.158 380.666 299.024 381.356 298.518 381.697ZM296.555 367.874C296.153 367.895 295.794 368.133 295.618 368.495L295.618 368.496C295.241 369.271 294.758 369.999 294.184 370.659L294.184 370.659C293.92 370.963 293.841 371.386 293.979 371.764L294.599 373.473L292.36 374.984L291.008 373.768C290.709 373.499 290.287 373.413 289.906 373.544C289.079 373.829 288.223 374.004 287.363 374.063L287.363 374.063C286.961 374.091 286.606 374.335 286.436 374.7L285.667 376.345L283.016 375.83L282.92 374.016C282.898 373.614 282.66 373.255 282.298 373.079C281.523 372.702 280.796 372.219 280.135 371.645C279.831 371.38 279.408 371.302 279.03 371.439L277.32 372.06L275.81 369.821L277.026 368.469C277.295 368.17 277.381 367.748 277.25 367.367L277.25 367.367C276.964 366.54 276.79 365.684 276.73 364.824C276.703 364.422 276.459 364.067 276.094 363.897L274.448 363.128L274.964 360.477L276.778 360.381C277.18 360.359 277.539 360.121 277.715 359.759L277.715 359.759C278.092 358.984 278.575 358.256 279.149 357.596L279.149 357.596C279.413 357.292 279.492 356.869 279.354 356.491L278.733 354.781L280.973 353.271L282.325 354.487C282.624 354.756 283.046 354.842 283.426 354.711L283.426 354.711C284.254 354.425 285.11 354.251 285.969 354.191L285.97 354.191C286.371 354.164 286.726 353.92 286.897 353.555L287.666 351.909L290.317 352.425L290.413 354.238C290.434 354.641 290.672 355 291.035 355.176C291.81 355.553 292.537 356.035 293.198 356.61C293.502 356.874 293.925 356.953 294.303 356.815L296.013 356.194L297.523 358.434L296.307 359.786C296.038 360.085 295.952 360.507 296.083 360.887L296.083 360.887C296.369 361.715 296.543 362.571 296.603 363.431C296.63 363.832 296.874 364.187 297.239 364.358L298.885 365.127L298.369 367.778L296.555 367.874ZM309.537 374.265C309.031 374.606 308.341 374.472 307.999 373.966C307.658 373.459 307.792 372.77 308.298 372.428C308.805 372.086 309.494 372.221 309.836 372.727C310.178 373.233 310.043 373.923 309.537 374.265Z" fill="#6FC758"/>
</g>
<path opacity="0.38" d="M78.0941 143.993C77.2773 144.577 76.3127 144.944 75.3015 145.044L64.6791 145.964C63.1187 146.138 63.5048 145.528 63.7816 145.138C64.8954 143.555 65.1129 143.222 66.0547 141.186C66.1534 140.972 66.3956 140.849 66.6383 140.828L74.8045 140.129C75.0916 140.093 75.3853 139.882 75.4972 139.633L88.6197 110.741C88.7427 110.476 88.7048 110.139 88.5287 109.893L70.0775 84.0998C69.8933 83.8424 69.595 83.7091 69.2914 83.7317L37.7265 86.8241C37.4315 86.8491 37.1573 87.0452 37.0383 87.3164L23.9212 116.188C23.7927 116.465 23.8272 116.805 24.0033 117.051L42.4546 142.844C42.6307 143.09 42.9331 143.229 43.2297 143.194L51.8803 142.352C56.3924 141.636 57.0226 138.225 55.6137 136.255L37.4026 110.798C37.1424 110.434 37.2277 109.95 37.5913 109.69L40.4224 107.665C40.7749 107.413 41.266 107.485 41.5261 107.848L59.7453 133.317C62.9152 137.748 62.3193 142.023 58.1174 145.029C56.8249 145.953 55.8066 146.682 51.9637 147.316L43.6827 148.131C41.6332 148.329 39.6173 147.403 38.4206 145.73L19.9693 119.936C18.7685 118.258 18.5431 116.051 19.3998 114.186L32.5408 85.2727C33.3839 83.46 35.2639 82.1152 37.2406 81.9107L68.8248 78.8382C70.8647 78.6393 72.8822 79.5559 74.0829 81.2344L92.5342 107.028C93.731 108.7 93.9468 110.906 93.1037 112.778L79.9907 141.671C79.5707 142.598 78.9116 143.391 78.0835 143.983" fill="#238C07"/>
<path opacity="0.38" d="M72.2829 121.279C62.5028 128.276 57.2406 125.253 54.547 121.488C54.2908 121.129 54.3754 120.638 54.734 120.381L57.6211 118.316C57.94 118.088 58.3746 118.128 58.6503 118.407C61.1912 121.036 63.5507 121.592 69.4647 117.361C74.1757 113.991 75.4175 111.494 73.6304 108.996C72.6018 107.558 71.2666 106.897 63.436 111.416C56.8827 115.191 52.1359 116.548 48.6338 111.652C45.4078 107.143 47.2912 101.735 53.664 97.1767C60.82 92.0576 66.1444 92.0042 70.4103 97.0217C70.5592 97.1943 70.6201 97.4214 70.5931 97.6437C70.5621 97.8605 70.4447 98.0629 70.2656 98.1909L67.3618 100.268C67.0597 100.484 66.6446 100.46 66.3749 100.213C63.4622 97.6192 61.0641 97.8376 56.4705 101.124C51.3287 104.802 52.0108 107.021 52.9714 108.363C54.1361 109.992 55.1813 109.963 62.7755 105.917C70.2986 101.914 74.4811 100.868 77.9352 105.696C81.4174 110.564 79.3526 116.262 72.2693 121.329L72.2829 121.279Z" fill="#238C07"/>
<g clip-path="url(#clip2_1782_5165)">
<g opacity="0.48">
<path d="M226.375 163.081L198.776 181.696C198.419 181.937 198.327 182.413 198.567 182.77L220.467 215.238C220.704 215.59 221.185 215.688 221.542 215.447L249.146 196.828C249.497 196.591 249.595 196.111 249.355 195.754L227.455 163.286C227.218 162.934 226.738 162.836 226.381 163.077L226.375 163.081ZM226.601 164.787L247.635 195.972L221.308 213.73L200.274 182.545L226.595 164.791L226.601 164.787Z" fill="#238908"/>
<path d="M233.347 200.862L238.456 197.416C238.807 197.179 238.905 196.699 238.665 196.342C238.424 195.985 237.947 195.892 237.591 196.133L232.481 199.579C232.13 199.816 232.032 200.296 232.273 200.653C232.513 201.01 232.99 201.103 233.347 200.862Z" fill="#238908"/>
<path d="M230.604 196.796L239.373 190.881C239.724 190.644 239.822 190.164 239.581 189.807C239.341 189.45 238.864 189.358 238.507 189.598L229.739 195.513C229.388 195.75 229.29 196.23 229.53 196.587C229.771 196.944 230.247 197.036 230.604 196.796Z" fill="#238908"/>
<path d="M226.839 191.214L231.948 187.767C232.299 187.53 232.398 187.05 232.157 186.693C231.916 186.336 231.44 186.244 231.083 186.484L225.973 189.931C225.622 190.168 225.524 190.648 225.765 191.005C226.005 191.362 226.482 191.454 226.839 191.214Z" fill="#238908"/>
<path d="M224.093 187.139L232.861 181.225C233.212 180.988 233.311 180.508 233.07 180.151C232.829 179.794 232.353 179.701 231.996 179.942L223.227 185.856C222.876 186.093 222.778 186.574 223.019 186.931C223.259 187.287 223.736 187.38 224.093 187.139Z" fill="#238908"/>
<path d="M225.23 200.015C224.203 198.493 222.146 198.078 220.64 199.094C219.134 200.11 218.748 202.172 219.775 203.695C220.061 204.119 220.438 204.473 220.878 204.728C220.584 205.941 220.815 207.222 221.522 208.27L222.538 209.776C222.775 210.128 223.255 210.226 223.612 209.985C223.969 209.744 224.061 209.268 223.821 208.911L222.805 207.405C222.357 206.741 222.203 205.936 222.362 205.172C223.071 205.213 223.777 205.021 224.363 204.626C224.949 204.23 225.391 203.648 225.619 202.975C226.392 203.11 227.08 203.564 227.524 204.222L228.539 205.728C228.776 206.08 229.257 206.178 229.614 205.937C229.97 205.696 230.063 205.22 229.822 204.863L228.806 203.357C228.099 202.308 226.998 201.614 225.764 201.433C225.692 200.929 225.505 200.447 225.219 200.023L225.23 200.015ZM223.953 200.877C224.502 201.691 224.303 202.792 223.505 203.33C222.707 203.868 221.613 203.64 221.063 202.826C220.514 202.011 220.713 200.911 221.511 200.373C222.309 199.835 223.403 200.063 223.953 200.877Z" fill="#238908"/>
<path d="M216.04 200.12C216.277 200.471 216.757 200.57 217.114 200.329C217.471 200.088 217.563 199.612 217.323 199.255L216.307 197.749C215.859 197.085 215.705 196.28 215.864 195.516C216.573 195.557 217.279 195.364 217.865 194.969C218.45 194.574 218.893 193.991 219.121 193.318C219.894 193.454 220.582 193.908 221.026 194.566L222.041 196.072C222.278 196.423 222.758 196.521 223.115 196.281C223.472 196.04 223.565 195.564 223.324 195.207L222.308 193.701C221.601 192.652 220.5 191.958 219.266 191.776C219.194 191.273 219.007 190.791 218.721 190.367C217.694 188.844 215.637 188.43 214.136 189.442C212.636 190.454 212.25 192.516 213.277 194.039C213.563 194.463 213.94 194.817 214.38 195.072C214.086 196.285 214.317 197.565 215.024 198.614L216.04 200.12ZM214.554 193.177C214.005 192.363 214.204 191.263 215.002 190.725C215.799 190.187 216.894 190.414 217.443 191.228C217.993 192.043 217.793 193.143 216.996 193.681C216.198 194.219 215.103 193.991 214.554 193.177Z" fill="#238908"/>
<path d="M210.587 190.676C210.938 190.439 211.037 189.959 210.796 189.602L209.78 188.096C209.332 187.432 209.179 186.627 209.342 185.859C210.052 185.9 210.758 185.708 211.349 185.309C211.94 184.91 212.378 184.331 212.611 183.655C213.384 183.79 214.077 184.24 214.521 184.898L215.537 186.404C215.774 186.756 216.254 186.854 216.611 186.613C216.968 186.372 217.061 185.896 216.82 185.539L215.804 184.033C215.097 182.984 213.996 182.29 212.761 182.109C212.689 181.605 212.502 181.123 212.216 180.699C211.189 179.176 209.127 178.766 207.626 179.778C206.126 180.79 205.734 182.856 206.761 184.379C207.047 184.802 207.424 185.157 207.864 185.412C207.57 186.625 207.801 187.905 208.508 188.954L209.524 190.46C209.761 190.811 210.241 190.909 210.598 190.669L210.587 190.676ZM208.037 183.526C207.487 182.712 207.692 181.608 208.49 181.07C209.287 180.532 210.388 180.756 210.937 181.57C211.486 182.384 211.281 183.488 210.484 184.026C209.686 184.564 208.586 184.341 208.037 183.526Z" fill="#238908"/>
<path d="M220.327 181.557L225.436 178.111C225.788 177.874 225.886 177.394 225.645 177.037C225.404 176.68 224.928 176.587 224.571 176.828L219.462 180.274C219.11 180.511 219.012 180.991 219.253 181.348C219.494 181.705 219.97 181.798 220.327 181.557Z" fill="#238908"/>
<path d="M217.579 177.487L226.347 171.573C226.699 171.336 226.797 170.856 226.556 170.499C226.315 170.142 225.839 170.049 225.482 170.29L216.714 176.204C216.362 176.441 216.264 176.921 216.505 177.278C216.746 177.635 217.222 177.728 217.579 177.487Z" fill="#238908"/>
</g>
</g>
<path fill-rule="evenodd" clip-rule="evenodd" d="M219.742 -12.7823C218.321 -13.0571 216.848 -12.7569 215.647 -11.9477L197.526 0.275257C196.326 1.08493 195.496 2.33829 195.22 3.75961C194.944 5.18094 195.243 6.6538 196.053 7.85419L208.276 25.9754C209.085 27.1758 210.339 28.0054 211.76 28.2817C213.181 28.5579 214.654 28.2583 215.855 27.4486L233.976 15.2257C235.176 14.416 236.006 13.1627 236.282 11.7413C236.558 10.32 236.259 8.84715 235.449 7.64676L223.226 -10.4745C222.416 -11.6746 221.163 -12.5045 219.742 -12.7823ZM197.365 4.17666C197.531 3.32412 198.027 2.57181 198.746 2.08398L216.867 -10.1389C217.589 -10.6223 218.472 -10.8007 219.325 -10.6349C220.177 -10.4692 220.93 -9.97296 221.417 -9.25447L223.25 -6.53714L199.694 9.35152L197.862 6.63419C197.378 5.9127 197.2 5.02923 197.365 4.17666ZM234.137 11.3243C233.971 12.1768 233.475 12.9291 232.756 13.417L214.635 25.6399C213.913 26.1233 213.03 26.3016 212.177 26.1359C211.325 25.9702 210.572 25.4739 210.085 24.7554L200.92 11.1687L224.476 -4.71992L233.64 8.86676C234.124 9.58824 234.302 10.4717 234.137 11.3243Z" fill="#6FC758"/>
<path fill-rule="evenodd" clip-rule="evenodd" d="M210.315 11.4136L209.407 12.0265C208.688 12.5144 208.192 13.2667 208.026 14.1192C207.861 14.9718 208.039 15.8552 208.522 16.5767L211.575 21.1028C211.738 21.3438 211.989 21.5103 212.275 21.5658C212.56 21.6212 212.856 21.5611 213.097 21.3985C213.338 21.236 213.504 20.9844 213.56 20.699C213.615 20.4137 213.555 20.118 213.392 19.877L212.654 18.7816L215.371 16.9488L216.11 18.0442C216.183 18.1786 216.283 18.2962 216.404 18.3896C216.525 18.483 216.664 18.55 216.812 18.5864C216.961 18.6228 217.115 18.6277 217.266 18.6009C217.416 18.574 217.559 18.516 217.686 18.4305C217.813 18.345 217.92 18.234 218.002 18.1046C218.083 17.9751 218.136 17.8301 218.158 17.6788C218.18 17.5275 218.17 17.3733 218.129 17.2262C218.087 17.079 218.016 16.9421 217.918 16.8242L214.866 12.2981C214.378 11.5796 213.625 11.0834 212.773 10.9176C211.92 10.7519 211.037 10.9302 210.315 11.4136ZM211.428 16.9644L210.34 15.351C210.256 15.2344 210.199 15.1017 210.17 14.9614C210.141 14.8211 210.142 14.6764 210.173 14.5365C210.226 14.2521 210.389 14 210.627 13.8352L211.535 13.2224C211.778 13.0651 212.072 13.0081 212.356 13.0632C212.64 13.1184 212.891 13.2814 213.057 13.5181L214.145 15.1315L211.428 16.9644Z" fill="#6FC758"/>
<path fill-rule="evenodd" clip-rule="evenodd" d="M218.597 5.83163L215.752 7.75042C215.511 7.91296 215.345 8.16457 215.289 8.4499C215.234 8.73524 215.294 9.03091 215.457 9.27189L219.729 15.6067C219.892 15.8477 220.144 16.0142 220.429 16.0697C220.714 16.1251 221.01 16.065 221.251 15.9024C221.492 15.7399 221.658 15.4883 221.714 15.2029C221.769 14.9176 221.709 14.6219 221.547 14.381L220.808 13.2855L222.744 11.9796C223.465 11.4896 223.964 10.7359 224.133 9.8812C224.216 9.45265 224.212 9.01176 224.122 8.58474C224.031 8.15772 223.856 7.75327 223.605 7.39544L223.147 6.71611C222.908 6.35898 222.601 6.05262 222.244 5.81468C221.886 5.57673 221.485 5.41189 221.063 5.32966C220.207 5.16674 219.321 5.34704 218.597 5.83163ZM221.797 8.61544C221.877 8.73361 221.932 8.86637 221.961 9.00611C221.989 9.14585 221.99 9.28985 221.963 9.42987C221.905 9.71521 221.737 9.96621 221.495 10.1284L219.559 11.4343L217.841 8.88684L219.777 7.58092C220.021 7.41998 220.319 7.36125 220.606 7.41735C220.747 7.44123 220.881 7.49445 221.001 7.57357C221.12 7.65268 221.221 7.75593 221.298 7.87666L221.797 8.61544Z" fill="#6FC758"/>
<path fill-rule="evenodd" clip-rule="evenodd" d="M223.903 2.25042C223.662 2.41296 223.495 2.66457 223.44 2.9499C223.384 3.23524 223.444 3.53091 223.607 3.77189L227.88 10.1067C228.042 10.3477 228.294 10.5142 228.579 10.5697C228.865 10.6251 229.16 10.565 229.401 10.4024C229.642 10.2399 229.809 9.98827 229.864 9.70294C229.92 9.41761 229.86 9.12193 229.697 8.88095L225.424 2.54616C225.262 2.30518 225.01 2.13865 224.725 2.08318C224.439 2.02772 224.144 2.08787 223.903 2.25042Z" fill="#6FC758"/>
<path fill-rule="evenodd" clip-rule="evenodd" d="M202.101 5.09889C202.281 4.97767 202.421 4.80589 202.503 4.60527C202.585 4.40464 202.605 4.18419 202.562 3.97177C202.519 3.75936 202.414 3.56453 202.26 3.41193C202.106 3.25932 201.91 3.15579 201.697 3.11443C201.485 3.07307 201.264 3.09574 201.064 3.17956C200.865 3.26339 200.694 3.40461 200.574 3.58536C200.455 3.76612 200.391 3.9783 200.392 4.19506C200.393 4.41182 200.458 4.62344 200.58 4.80314C200.742 5.04412 200.994 5.21066 201.279 5.26612C201.564 5.32158 201.86 5.26143 202.101 5.09889Z" fill="#6FC758"/>
<path fill-rule="evenodd" clip-rule="evenodd" d="M205.726 2.64964C205.906 2.52843 206.046 2.35665 206.128 2.15602C206.21 1.9554 206.231 1.73494 206.187 1.52253C206.144 1.31011 206.039 1.11529 205.885 0.962681C205.731 0.810076 205.535 0.706547 205.322 0.665186C205.11 0.623825 204.889 0.64649 204.689 0.730316C204.49 0.814141 204.319 0.955361 204.199 1.13612C204.08 1.31688 204.016 1.52905 204.017 1.74581C204.018 1.96257 204.083 2.17419 204.205 2.35389C204.284 2.4743 204.387 2.57763 204.507 2.65785C204.627 2.73807 204.762 2.79357 204.903 2.82111C205.045 2.84864 205.191 2.84766 205.332 2.81822C205.473 2.78878 205.607 2.73147 205.726 2.64964Z" fill="#6FC758"/>
<g opacity="0.48">
<path d="M62.2366 304.02C61.7633 303.319 60.789 303.129 60.0874 303.602C58.1023 304.941 56.0133 306.126 53.8722 307.197C50.721 303.596 48.0316 299.609 45.8614 295.321C49.4627 292.17 53.45 289.48 57.7378 287.31C59.322 289.105 60.8034 290.969 62.1539 292.971C62.6272 293.673 63.6015 293.862 64.3031 293.389C65.0047 292.916 65.1941 291.941 64.7209 291.24C63.4742 289.391 62.0907 287.636 60.6503 285.943C63.0891 284.871 65.6032 283.947 68.1642 283.24C68.3071 283.194 68.4213 283.142 68.5411 283.061C69.6802 284.085 70.7457 285.259 71.646 286.593C72.1193 287.295 73.0936 287.485 73.7952 287.011C74.4969 286.538 74.6862 285.564 74.213 284.862C67.3565 274.697 53.5444 272.012 43.3964 278.857C33.2485 285.702 30.5637 299.514 37.4086 309.662C44.2535 319.81 58.0656 322.495 68.2136 315.65C68.9152 315.177 69.1046 314.202 68.6313 313.501C68.1581 312.799 67.1838 312.61 66.4821 313.083C65.1302 313.995 63.7198 314.672 62.2627 315.207C62.1819 315.087 62.1127 314.984 62.0092 314.905C59.8878 313.273 57.9316 311.48 56.072 309.573C58.0416 308.543 59.9822 307.433 61.8304 306.186C62.532 305.713 62.7214 304.739 62.2481 304.037L62.2366 304.02ZM50.9713 308.581C48.5324 309.653 46.0355 310.566 43.4402 311.295C43.3145 311.33 43.2062 311.428 43.092 311.481C41.9413 310.439 40.8758 309.265 39.9755 307.931C39.0752 306.596 38.3861 305.168 37.8631 303.728C37.9829 303.648 38.0856 303.578 38.1823 303.463C39.8139 301.342 41.6239 299.374 43.5202 297.497C45.5912 301.454 48.096 305.167 50.9884 308.57L50.9713 308.581ZM65.4947 280.833C63.1056 281.573 60.7515 282.439 58.4958 283.487C56.7799 281.682 54.9216 279.997 52.9721 278.399C57.2911 277.751 61.7327 278.615 65.4947 280.833ZM49.3301 279.312C49.3994 279.414 49.4802 279.534 49.5837 279.614C51.7051 281.245 53.69 283.044 55.5495 284.952C51.5932 287.023 47.8797 289.527 44.4774 292.42C43.4051 289.981 42.4812 287.467 41.7631 284.889C41.728 284.763 41.6301 284.655 41.578 284.541C42.6194 283.39 43.7931 282.324 45.1279 281.424C46.4627 280.524 47.8902 279.835 49.3301 279.312ZM39.2085 287.857C39.2085 287.857 39.3343 287.822 39.3856 287.787C40.1252 290.102 41.0248 292.358 42.0387 294.563C40.216 296.29 38.5314 298.148 36.9332 300.098C36.3092 295.888 37.1046 291.567 39.2085 287.857ZM58.4484 316.012C58.4484 316.012 58.3688 316.115 58.3175 316.15C54.1983 316.688 50.0146 315.874 46.3967 313.833C46.3621 313.782 46.3616 313.707 46.327 313.656C48.6588 312.905 50.9154 312.005 53.1484 310.997C54.8126 312.763 56.5794 314.459 58.4484 316.012Z" fill="#1D8A00"/>
<path d="M76.5287 303.172L75.8328 306.828C75.5989 308.031 74.3667 308.863 73.1632 308.629C72.5614 308.512 72.0615 308.177 71.7152 307.663C71.3689 307.15 71.2455 306.561 71.3625 305.959L72.087 302.308C72.2374 301.534 71.718 300.764 70.9443 300.614C70.1706 300.464 69.4005 300.983 69.2501 301.757L68.5542 305.413C68.2924 306.76 68.5747 308.138 69.3481 309.285C70.1214 310.431 71.2936 311.209 72.6404 311.471C73.9872 311.733 75.3654 311.451 76.512 310.677C77.6586 309.904 78.4366 308.732 78.6984 307.385L79.4058 303.746C79.5562 302.972 79.0368 302.202 78.263 302.051C77.4893 301.901 76.7193 302.421 76.5689 303.194L76.5287 303.172Z" fill="#1D8A00"/>
<path d="M76.7188 290.343C73.9105 289.797 71.2067 291.621 70.6608 294.429L69.9363 298.08C69.7859 298.854 70.3053 299.624 71.079 299.774C71.8527 299.925 72.6284 299.377 72.7732 298.632L73.4806 294.992C73.6974 293.8 74.9467 292.958 76.1502 293.192C76.752 293.309 77.2519 293.644 77.5982 294.157C77.9445 294.671 78.0679 295.26 77.9509 295.861L77.2264 299.512C77.076 300.286 77.5954 301.056 78.3691 301.206C78.7417 301.279 79.1305 301.191 79.4556 300.971C79.7808 300.752 79.9909 300.436 80.0689 300.035L80.7647 296.379C81.0265 295.032 80.7443 293.653 79.9709 292.507C79.1975 291.36 78.0254 290.582 76.6786 290.321L76.7188 290.343Z" fill="#1D8A00"/>
<path d="M72.7461 305.353C72.9654 305.678 73.2814 305.888 73.6826 305.966C74.0551 306.038 74.4555 305.967 74.7807 305.748C75.1058 305.529 75.3159 305.213 75.3939 304.812L76.8143 297.504C76.8867 297.132 76.8158 296.731 76.5965 296.406C76.3772 296.081 76.0612 295.871 75.66 295.793C74.8863 295.643 74.1106 296.191 73.9658 296.936L72.5454 304.243C72.473 304.616 72.5439 305.016 72.7632 305.341L72.7461 305.353Z" fill="#1D8A00"/>
</g>
</g>
<defs>
<filter id="filter0_b_1782_5165" x="-112.622" y="-51.5672" width="332.673" height="328.482" filterUnits="userSpaceOnUse" color-interpolation-filters="sRGB">
<feFlood flood-opacity="0" result="BackgroundImageFix"/>
<feGaussianBlur in="BackgroundImageFix" stdDeviation="47.35"/>
<feComposite in2="SourceAlpha" operator="in" result="effect1_backgroundBlur_1782_5165"/>
<feBlend mode="normal" in="SourceGraphic" in2="effect1_backgroundBlur_1782_5165" result="shape"/>
</filter>
<filter id="filter1_b_1782_5165" x="57.9895" y="24.3195" width="332.673" height="328.482" filterUnits="userSpaceOnUse" color-interpolation-filters="sRGB">
<feFlood flood-opacity="0" result="BackgroundImageFix"/>
<feGaussianBlur in="BackgroundImageFix" stdDeviation="47.35"/>
<feComposite in2="SourceAlpha" operator="in" result="effect1_backgroundBlur_1782_5165"/>
<feBlend mode="normal" in="SourceGraphic" in2="effect1_backgroundBlur_1782_5165" result="shape"/>
</filter>
<filter id="filter2_b_1782_5165" x="-108.581" y="134.46" width="332.673" height="328.482" filterUnits="userSpaceOnUse" color-interpolation-filters="sRGB">
<feFlood flood-opacity="0" result="BackgroundImageFix"/>
<feGaussianBlur in="BackgroundImageFix" stdDeviation="47.35"/>
<feComposite in2="SourceAlpha" operator="in" result="effect1_backgroundBlur_1782_5165"/>
<feBlend mode="normal" in="SourceGraphic" in2="effect1_backgroundBlur_1782_5165" result="shape"/>
</filter>
<filter id="filter3_b_1782_5165" x="123.066" y="203.655" width="332.673" height="328.482" filterUnits="userSpaceOnUse" color-interpolation-filters="sRGB">
<feFlood flood-opacity="0" result="BackgroundImageFix"/>
<feGaussianBlur in="BackgroundImageFix" stdDeviation="47.35"/>
<feComposite in2="SourceAlpha" operator="in" result="effect1_backgroundBlur_1782_5165"/>
<feBlend mode="normal" in="SourceGraphic" in2="effect1_backgroundBlur_1782_5165" result="shape"/>
</filter>
<filter id="filter4_b_1782_5165" x="51.9133" y="-154.716" width="332.673" height="328.482" filterUnits="userSpaceOnUse" color-interpolation-filters="sRGB">
<feFlood flood-opacity="0" result="BackgroundImageFix"/>
<feGaussianBlur in="BackgroundImageFix" stdDeviation="47.35"/>
<feComposite in2="SourceAlpha" operator="in" result="effect1_backgroundBlur_1782_5165"/>
<feBlend mode="normal" in="SourceGraphic" in2="effect1_backgroundBlur_1782_5165" result="shape"/>
</filter>
<radialGradient id="paint0_radial_1782_5165" cx="0" cy="0" r="1" gradientUnits="userSpaceOnUse" gradientTransform="translate(213.5 18.5) rotate(82.8317) scale(492.852 439.701)">
<stop stop-color="#A3FF82"/>
<stop offset="1" stop-color="#49F71E"/>
</radialGradient>
<clipPath id="clip0_1782_5165">
<rect width="364" height="408" rx="35" fill="white"/>
</clipPath>
<clipPath id="clip1_1782_5165">
<rect width="40.3288" height="40.3288" fill="white" transform="translate(261 362.551) rotate(-34)"/>
</clipPath>
<clipPath id="clip2_1782_5165">
<rect width="43.4252" height="43.4252" fill="white" transform="translate(194 183.281) rotate(-34)"/>
</clipPath>
</defs>
</svg>
