<svg width="364" height="408" viewBox="0 0 364 408" fill="none" xmlns="http://www.w3.org/2000/svg">
<g clip-path="url(#clip0_1782_5020)">
<rect width="364" height="408" rx="35" fill="url(#paint0_radial_1782_5020)"/>
<g filter="url(#filter0_b_1782_5020)">
<rect x="-23" y="103.895" width="116.055" height="100.932" rx="12" transform="rotate(-34 -23 103.895)" fill="#F9EF9C"/>
</g>
<path opacity="0.53" d="M89.4388 123.182C92.4379 124.549 95.4501 125.01 98.7343 122.795C101.493 120.934 102.325 118.366 101.04 116.461C99.5004 114.178 97.1442 114.591 93.2116 115.311L91.0653 115.719C84.8799 116.913 79.9583 116.502 76.3018 111.081C72.9335 106.087 74.1742 99.719 80.1205 95.7082C84.3539 92.8527 88.3911 92.2732 93.1863 94.6517L90.247 101.478C87.7247 100.201 85.9493 100.225 84.0373 101.515C82.087 102.83 81.6855 104.901 82.7756 106.518C84.1229 108.515 85.9055 108.489 89.5968 107.799L91.7423 107.39C99.0359 106 103.898 106.319 107.649 111.879C111.692 117.874 109.198 124.334 102.874 128.6C96.6905 132.771 90.708 132.519 86.1482 129.975L89.4388 123.182ZM66.3071 139.624C68.6048 140.774 70.6146 141.701 72.9022 140.158C75.0897 138.683 75.8924 136.896 73.6477 133.568L58.3767 110.928L65.0349 106.437L80.3666 129.167C85.0169 136.061 83.0913 141.926 77.1911 145.905C71.8601 149.501 66.9119 148.825 63.1004 146.561L66.3071 139.624Z" fill="#FEE200"/>
<g filter="url(#filter1_b_1782_5020)">
<rect x="148" y="178.898" width="116.055" height="100.932" rx="12" transform="rotate(-34 148 178.898)" fill="#F9EF9C"/>
</g>
<g filter="url(#filter2_b_1782_5020)">
<rect x="-18" y="289.898" width="116.055" height="100.932" rx="12" transform="rotate(-34 -18 289.898)" fill="#F9EF9C"/>
</g>
<path d="M230.058 170.157L227.578 171.829L225.908 169.354C225.601 168.898 224.982 168.777 224.526 169.085L220.137 172.045L215.014 171.05C214.755 170.999 214.487 171.054 214.268 171.202L202.825 178.92C202.369 179.227 202.249 179.846 202.557 180.302L215.989 200.217C216.297 200.672 216.915 200.793 217.371 200.485L219.847 198.815L221.516 201.291C221.824 201.746 222.443 201.867 222.898 201.56L225.378 199.887L227.048 202.363C227.355 202.818 227.974 202.939 228.43 202.631L244.603 191.722C245.059 191.414 245.179 190.796 244.872 190.34L231.439 170.425C231.132 169.969 230.513 169.849 230.058 170.157ZM216.625 173.391L221.119 174.264L218.435 176.075L216.625 173.391ZM204.764 180.014L214.336 173.557L217.342 178.013C217.649 178.469 218.268 178.589 218.723 178.282L222.849 175.499L231.607 188.482L217.083 198.278L204.764 180.014ZM221.497 197.702L233.545 189.576C234.001 189.268 234.121 188.65 233.814 188.194L223.572 173.01C223.424 172.791 223.196 172.64 222.937 172.59L222.9 172.583L224.814 171.292L237.134 189.556L222.61 199.353L221.497 197.702ZM242.665 190.628L228.142 200.424L227.028 198.774L239.072 190.65C239.528 190.343 239.648 189.724 239.341 189.268L228.691 173.48L230.346 172.364L242.665 190.628Z" fill="#CFC577"/>
<path d="M209.466 181.645L212.768 179.417C213.224 179.109 213.345 178.491 213.037 178.035C212.73 177.579 212.111 177.459 211.655 177.766L208.353 179.994C207.897 180.302 207.777 180.92 208.084 181.376C208.391 181.832 209.01 181.952 209.466 181.645Z" fill="#CFC577"/>
<path d="M211.692 184.945L214.988 182.723C215.443 182.415 215.564 181.797 215.256 181.341C214.949 180.885 214.33 180.765 213.875 181.072L210.579 183.295C210.123 183.602 210.003 184.221 210.311 184.677C210.618 185.133 211.237 185.253 211.692 184.945Z" fill="#CFC577"/>
<path d="M221.525 180.714L212.806 186.596C212.35 186.903 212.23 187.522 212.537 187.978C212.845 188.433 213.463 188.554 213.919 188.246L222.638 182.365C223.094 182.057 223.214 181.439 222.907 180.983C222.6 180.527 221.981 180.407 221.525 180.714Z" fill="#CFC577"/>
<path d="M223.75 184.015L215.03 189.897C214.574 190.204 214.454 190.823 214.762 191.278C215.069 191.734 215.688 191.854 216.143 191.547L224.863 185.665C225.319 185.358 225.439 184.739 225.132 184.284C224.824 183.828 224.206 183.708 223.75 184.015Z" fill="#CFC577"/>
<path d="M225.978 187.316L217.259 193.197C216.803 193.505 216.683 194.123 216.99 194.579C217.298 195.035 217.916 195.155 218.372 194.848L227.092 188.966C227.547 188.659 227.668 188.04 227.36 187.584C227.053 187.129 226.434 187.008 225.978 187.316Z" fill="#CFC577"/>
<g filter="url(#filter3_b_1782_5020)">
<rect x="214" y="357.898" width="116.055" height="100.932" rx="12" transform="rotate(-34 214 357.898)" fill="#F9EF9C"/>
</g>
<g filter="url(#filter4_b_1782_5020)">
<rect x="141" y="-0.101562" width="116.055" height="100.932" rx="12" transform="rotate(-34 141 -0.101562)" fill="#F9EF9C"/>
</g>
<path d="M219.663 6.76294C221.306 5.65444 221.742 3.41571 220.633 1.77231C219.525 0.128896 217.286 -0.306268 215.642 0.802226C213.999 1.91072 213.564 4.14945 214.672 5.79285C215.781 7.43626 218.02 7.87143 219.663 6.76294ZM216.402 1.92848C217.425 1.23858 218.817 1.50915 219.507 2.53197C220.197 3.55479 219.926 4.94678 218.903 5.63668C217.881 6.32658 216.485 6.05859 215.795 5.03577C215.105 4.01295 215.379 2.61838 216.402 1.92848Z" fill="#D1C779"/>
<path d="M220.726 -13.8464C219.986 -13.9936 219.23 -13.8409 218.606 -13.4197L201.341 -1.77408C200.05 -0.903301 199.708 0.854324 200.579 2.1453L213.183 20.8319C214.054 22.1229 215.811 22.4645 217.102 21.5937L234.364 9.95069C235.655 9.07991 236 7.3197 235.13 6.02873L222.525 -12.6579C222.107 -13.2785 221.468 -13.7056 220.726 -13.8464ZM233.606 8.81802L216.34 20.4637C215.67 20.9158 214.759 20.7388 214.307 20.0684L203.581 4.16679L223.275 -9.11705L234.003 6.78839C234.453 7.45495 234.276 8.36584 233.606 8.81802ZM202.1 -0.647824L219.362 -12.2909C220.032 -12.7431 220.947 -12.5686 221.399 -11.8982L222.515 -10.2433L202.821 3.04053L201.705 1.38563C201.253 0.715245 201.43 -0.195641 202.1 -0.647824Z" fill="#D1C779"/>
<path d="M214.026 -1.58955C209.79 1.26824 208.667 7.04146 211.525 11.2783C212.639 12.9294 214.218 14.155 216.082 14.8203L216.138 14.8444C216.393 14.934 216.664 15.0133 217.013 15.1011C217.14 15.1324 217.271 15.1612 217.403 15.1836L217.583 15.2185C217.666 15.2347 217.756 15.2521 217.847 15.2632C217.906 15.268 217.961 15.2754 218.023 15.284C218.116 15.2989 218.214 15.3112 218.298 15.321C219.856 15.474 221.431 15.231 222.897 14.5938L222.979 14.5664C223.128 14.499 223.275 14.4277 223.416 14.3552L223.482 14.3215C223.609 14.2529 223.731 14.1869 223.862 14.1157C223.892 14.095 223.929 14.0756 223.952 14.0601C224.103 13.9695 224.247 13.8778 224.393 13.7796C224.539 13.6814 224.682 13.5794 224.837 13.4632C224.854 13.4464 224.869 13.4361 224.9 13.4154C225.017 13.3251 225.132 13.2309 225.244 13.1329L225.293 13.0891C225.416 12.9833 225.538 12.8737 225.626 12.781L225.721 12.7164L225.723 12.6933C226.842 11.5928 227.662 10.2145 228.105 8.70619C228.125 8.63687 228.142 8.57014 228.158 8.50341L228.226 8.25698C228.246 8.17101 228.27 8.08245 228.287 7.99264L228.321 7.81945C228.346 7.69115 228.368 7.55903 228.387 7.42949L228.402 7.33585C228.438 7.02679 228.465 6.76904 228.479 6.50881L228.471 6.46399C228.554 4.47964 228.012 2.56019 226.898 0.909123C224.04 -3.32773 218.259 -4.44476 214.026 -1.58955ZM222.198 13.4262C220.583 14.0809 218.773 14.1816 217.08 13.7128C217.335 11.4058 218.581 9.34468 220.512 8.04239C222.443 6.7401 224.824 6.35428 227.059 6.9817C226.867 8.72186 226.099 10.36 224.877 11.6136L224.858 11.6266C224.774 11.7167 224.687 11.8031 224.589 11.8971C224.569 11.9165 224.553 11.9268 224.522 11.9539C224.456 12.0145 224.389 12.0712 224.297 12.1499C224.246 12.1899 224.201 12.2312 224.144 12.2699L223.955 12.4196C223.737 12.5836 223.509 12.7424 223.265 12.8847C223.231 12.908 223.19 12.93 223.149 12.952L222.885 13.097C222.807 13.1384 222.725 13.1824 222.644 13.22L222.556 13.2628C222.442 13.3172 222.33 13.3652 222.221 13.4107L222.198 13.4262ZM214.789 -0.459472C218.405 -2.89867 223.329 -1.94489 225.768 1.67137C226.556 2.83976 227.013 4.18681 227.098 5.58456C224.568 4.98308 221.913 5.45882 219.76 6.91097C217.607 8.36312 216.167 10.6496 215.778 13.22C214.515 12.6117 213.437 11.6832 212.651 10.5186C210.212 6.90238 211.172 1.97973 214.789 -0.459472Z" fill="#D1C779"/>
<path d="M48.3846 309.358C48.7246 309.128 48.9141 308.665 48.6164 308.224L48.181 307.578L49.4728 306.707L49.9082 307.353C50.0452 307.556 50.2447 307.683 50.4703 307.71C50.6672 307.734 50.8728 307.681 51.049 307.562C51.3909 307.332 51.5812 306.867 51.2827 306.425L49.0346 303.092C48.283 301.977 46.7656 301.682 45.6513 302.434C44.537 303.186 44.2421 304.703 44.9937 305.817L47.2417 309.15C47.5394 309.591 48.0428 309.588 48.3853 309.357L48.3846 309.358ZM46.5781 303.809C46.9343 303.569 47.4193 303.664 47.6591 304.019L48.5444 305.332L47.2526 306.203L46.3673 304.891C46.1271 304.535 46.2219 304.05 46.5775 303.81L46.5781 303.809Z" fill="#CFC577"/>
<path d="M53.0453 306.211C53.3872 305.981 53.5768 305.516 53.2788 305.074L52.3935 303.762L53.0391 303.327C54.1534 302.575 54.4484 301.058 53.6968 299.943C52.9452 298.829 51.4277 298.534 50.3134 299.286L48.9804 300.185C48.6011 300.441 48.5008 300.957 48.7567 301.336L51.9043 306.002C52.2023 306.444 52.7039 306.442 53.0457 306.212L53.0453 306.211ZM51.4661 302.387L50.5948 301.095L51.2404 300.66C51.5966 300.42 52.0816 300.514 52.3214 300.87C52.5613 301.226 52.4669 301.711 52.1113 301.951L51.4657 302.386L51.4661 302.387Z" fill="#CFC577"/>
<path d="M57.7127 303.055C58.0533 302.825 58.2427 302.362 57.9455 301.921L54.7983 297.256C54.5037 296.819 54.0023 296.82 53.6594 297.047C53.4673 297.175 53.3319 297.369 53.2903 297.58C53.2494 297.785 53.2957 297.994 53.4234 298.183L56.5706 302.849C56.8678 303.289 57.3706 303.287 57.7131 303.056L57.7127 303.055Z" fill="#CFC577"/>
<path d="M62.6854 277.362L36.0205 295.348C34.9062 296.1 34.6112 297.617 35.3628 298.731L49.7512 320.063C50.5028 321.177 52.0202 321.472 53.1345 320.721L79.7994 302.735C80.9137 301.983 81.2087 300.466 80.4571 299.352L66.0687 278.02C65.3171 276.906 63.7997 276.611 62.6854 277.362ZM36.7377 297.804C36.4975 297.448 36.5923 296.963 36.9479 296.723L63.6128 278.737C63.969 278.497 64.454 278.592 64.6938 278.947L66.928 282.26L38.9719 301.116L36.7377 297.804ZM67.8554 283.635L79.0822 300.279C79.3224 300.635 79.2276 301.12 78.872 301.36L52.2071 319.346C51.8509 319.586 51.3659 319.491 51.1261 319.136L39.8993 302.491L67.8554 283.635Z" fill="#CFC577"/>
<path d="M60.2778 300.719C60.4837 300.705 60.6772 300.801 60.7961 300.978C60.9149 301.154 60.9326 301.37 60.8423 301.556C60.4481 302.365 60.785 303.345 61.5944 303.74C61.5944 303.74 63.4509 304.645 63.453 304.646C63.8404 304.835 64.2832 304.859 64.701 304.715C65.1177 304.571 65.4502 304.28 65.6372 303.894C65.7267 303.709 65.9067 303.591 66.1186 303.576C66.3322 303.561 66.5282 303.654 66.6433 303.824C67.147 304.571 68.1642 304.769 68.911 304.265L70.6259 303.108C71.3727 302.604 71.5705 301.587 71.0667 300.84C70.9516 300.67 70.9383 300.453 71.0314 300.262C71.1244 300.071 71.3032 299.948 71.5084 299.934C71.9406 299.904 72.338 299.703 72.6275 299.368C72.9146 299.036 73.0552 298.617 73.024 298.191L72.8803 296.128C72.8175 295.23 72.0359 294.55 71.1369 294.613C70.9311 294.627 70.7369 294.531 70.6181 294.354C70.4992 294.178 70.4821 293.961 70.5725 293.776C70.9673 292.966 70.6297 291.987 69.8203 291.592C68.5832 290.989 67.9636 290.687 67.9613 290.685C67.1652 290.3 66.1647 290.645 65.7782 291.438C65.6889 291.621 65.5085 291.739 65.2953 291.754C65.0817 291.769 64.8861 291.677 64.7719 291.508C64.2682 290.761 63.251 290.563 62.5042 291.067L60.7893 292.224C60.0425 292.728 59.8447 293.745 60.3485 294.492C60.4631 294.662 60.476 294.878 60.3823 295.069C60.2887 295.26 60.111 295.384 59.9062 295.398C59.0225 295.461 58.3285 296.26 58.3906 297.142L58.5343 299.204C58.5971 300.102 59.3787 300.782 60.2776 300.72L60.2778 300.719ZM69.2628 295.276C69.7155 295.944 70.4484 296.314 71.2272 296.269L71.3675 298.282C70.5847 298.345 69.9077 298.813 69.5537 299.54C69.1988 300.267 69.2451 301.091 69.6779 301.747L68.0043 302.876C67.5563 302.228 66.8103 301.876 66.0031 301.933C65.197 301.99 64.5091 302.442 64.1581 303.144L62.3441 302.26C62.6796 301.546 62.6105 300.722 62.1566 300.052C61.7051 299.385 60.9703 299.017 60.1875 299.063L60.0472 297.05C60.8311 296.987 61.5085 296.519 61.8628 295.794C62.2176 295.067 62.1709 294.243 61.7373 293.585L63.4109 292.456C63.8589 293.104 64.6043 293.457 65.4108 293.4C66.2157 293.344 66.9042 292.891 67.2567 292.187L69.0706 293.071C68.737 293.782 68.808 294.604 69.2628 295.276Z" fill="#CFC577"/>
<path d="M63.9002 294.976C62.4184 295.976 62.026 297.995 63.0255 299.476C64.025 300.958 66.0437 301.351 67.5254 300.351C69.0072 299.352 69.3996 297.333 68.4001 295.851C67.4006 294.369 65.382 293.977 63.9002 294.976ZM67.0252 296.779C67.5134 297.502 67.3217 298.488 66.598 298.976C65.8743 299.464 64.8885 299.273 64.4004 298.549C63.9123 297.825 64.1039 296.839 64.8276 296.351C65.5513 295.863 66.5371 296.055 67.0252 296.779Z" fill="#CFC577"/>
<path d="M63.1508 280.93L56.485 285.427C56.0451 285.723 56.0488 286.226 56.2807 286.57C56.51 286.91 56.9718 287.099 57.4118 286.802L64.0782 282.305C64.5194 282.008 64.5156 281.505 64.2838 281.161C64.0519 280.817 63.592 280.633 63.1508 280.93Z" fill="#CFC577"/>
<path d="M39.1542 297.118C38.7749 297.374 38.6746 297.89 38.9305 298.269C39.1864 298.649 39.7023 298.749 40.0816 298.493C40.461 298.237 40.5613 297.721 40.3054 297.342C40.0495 296.963 39.5336 296.862 39.1542 297.118Z" fill="#CFC577"/>
<path d="M41.1523 295.767C40.7729 296.023 40.6727 296.539 40.9285 296.918C41.1844 297.297 41.7003 297.398 42.0797 297.142C42.459 296.886 42.5593 296.37 42.3034 295.991C42.0476 295.611 41.5316 295.511 41.1523 295.767Z" fill="#CFC577"/>
<path d="M43.1542 294.415C42.7749 294.671 42.6746 295.187 42.9305 295.566C43.1864 295.946 43.7023 296.046 44.0816 295.79C44.461 295.534 44.5613 295.018 44.3054 294.639C44.0495 294.26 43.5336 294.159 43.1542 294.415Z" fill="#CFC577"/>
<path d="M51.5963 312.031C51.723 311.379 52.0855 309.514 52.0892 309.495C52.1884 308.982 51.8288 308.633 51.4217 308.554C51.0199 308.476 50.5615 308.666 50.4619 309.179L49.8109 312.528C49.7237 312.977 50.0179 313.413 50.4664 313.5C50.4664 313.5 53.7915 314.146 53.8152 314.15C54.0486 314.196 54.2513 314.145 54.4094 314.038C54.6013 313.908 54.7298 313.697 54.7721 313.477C54.8494 313.079 54.6543 312.624 54.1311 312.523L51.5965 312.03L51.5963 312.031Z" fill="#CFC577"/>
<path d="M56.7662 304.923C56.2549 304.825 55.8971 305.193 55.8192 305.591C55.7412 305.992 55.9323 306.451 56.4493 306.551L58.9839 307.044L58.491 309.579C58.3909 310.094 58.7497 310.444 59.1553 310.523C59.374 310.565 59.6103 310.528 59.7966 310.403C59.9522 310.298 60.0727 310.13 60.1189 309.895L60.7699 306.547C60.8571 306.098 60.5629 305.661 60.1144 305.575L56.7656 304.924L56.7662 304.923Z" fill="#CFC577"/>
<path d="M54.3999 306.328C54.1719 306.386 53.9796 306.526 53.873 306.711C53.7706 306.888 53.7488 307.096 53.8089 307.312C53.8089 307.312 55.1607 312.166 55.1737 312.211C55.2541 312.498 55.4584 312.704 55.735 312.776C55.9802 312.839 56.2477 312.789 56.4552 312.649C56.5021 312.618 56.5466 312.581 56.5868 312.54C56.7851 312.338 56.852 312.055 56.7718 311.766C56.7718 311.766 55.4245 306.929 55.4074 306.868C55.2712 306.379 54.7974 306.227 54.4007 306.329L54.3999 306.328Z" fill="#CFC577"/>
<g opacity="0.24">
<path d="M296.603 345.6L274.371 360.596C273.064 361.478 272.717 363.259 273.599 364.566L288.595 386.798C289.477 388.105 291.257 388.452 292.565 387.57L314.797 372.574C316.104 371.692 316.45 369.911 315.568 368.604C315.095 367.903 301.047 347.075 300.573 346.372C299.691 345.065 297.91 344.719 296.603 345.6ZM275.18 363.5C274.886 363.064 275.001 362.471 275.437 362.177L297.669 347.181C298.105 346.887 298.698 347.002 298.992 347.438L299.703 348.492L275.89 364.554L275.18 363.5ZM313.988 369.67C314.282 370.106 314.166 370.7 313.731 370.994L291.499 385.989C291.063 386.283 290.469 386.168 290.175 385.732L276.956 366.134L300.769 350.072L313.988 369.67Z" fill="#494102"/>
<path d="M291.09 378.677L307.105 367.874C307.542 367.58 307.657 366.987 307.362 366.551L299.402 354.75C299.108 354.313 298.516 354.198 298.079 354.492L282.064 365.295C281.627 365.589 281.512 366.182 281.806 366.618L289.766 378.419C290.061 378.856 290.653 378.971 291.09 378.677ZM290.814 376.563L289.877 375.174L291.368 369.068L295.887 369.637C296.384 369.7 296.846 369.366 296.941 368.874L298.258 362.103L302.857 363.281L305.249 366.826L290.814 376.563ZM298.355 356.606L301.253 360.902L297.751 360.005C297.227 359.871 296.685 360.201 296.579 360.747L295.24 367.634L290.763 367.07C290.283 367.009 289.833 367.319 289.718 367.789L288.436 373.038L283.92 366.343L298.355 356.606Z" fill="#494102"/>
<path d="M299.041 375.92L297.355 377.057C296.918 377.351 296.803 377.944 297.097 378.38C297.392 378.817 297.984 378.932 298.421 378.637L300.107 377.5C300.543 377.206 300.658 376.613 300.364 376.177C300.069 375.74 299.477 375.625 299.041 375.92Z" fill="#494102"/>
<path d="M304.099 372.51L302.413 373.647C301.977 373.941 301.862 374.534 302.156 374.97C302.45 375.406 303.043 375.522 303.479 375.227L305.165 374.09C305.602 373.796 305.717 373.203 305.422 372.767C305.128 372.33 304.536 372.215 304.099 372.51Z" fill="#494102"/>
<path d="M293.296 379.516L293.204 379.992L292.728 379.9C292.211 379.799 291.711 380.137 291.61 380.653C291.51 381.17 291.847 381.671 292.364 381.771L293.775 382.045C294.292 382.146 294.793 381.808 294.893 381.292L295.167 379.88C295.268 379.363 294.93 378.863 294.414 378.763C293.897 378.662 293.397 379 293.296 379.516Z" fill="#494102"/>
</g>
</g>
<defs>
<filter id="filter0_b_1782_5020" x="-113.042" y="-51.0437" width="332.738" height="328.658" filterUnits="userSpaceOnUse" color-interpolation-filters="sRGB">
<feFlood flood-opacity="0" result="BackgroundImageFix"/>
<feGaussianBlur in="BackgroundImageFix" stdDeviation="47.35"/>
<feComposite in2="SourceAlpha" operator="in" result="effect1_backgroundBlur_1782_5020"/>
<feBlend mode="normal" in="SourceGraphic" in2="effect1_backgroundBlur_1782_5020" result="shape"/>
</filter>
<filter id="filter1_b_1782_5020" x="57.9582" y="23.9602" width="332.738" height="328.658" filterUnits="userSpaceOnUse" color-interpolation-filters="sRGB">
<feFlood flood-opacity="0" result="BackgroundImageFix"/>
<feGaussianBlur in="BackgroundImageFix" stdDeviation="47.35"/>
<feComposite in2="SourceAlpha" operator="in" result="effect1_backgroundBlur_1782_5020"/>
<feBlend mode="normal" in="SourceGraphic" in2="effect1_backgroundBlur_1782_5020" result="shape"/>
</filter>
<filter id="filter2_b_1782_5020" x="-108.042" y="134.96" width="332.738" height="328.658" filterUnits="userSpaceOnUse" color-interpolation-filters="sRGB">
<feFlood flood-opacity="0" result="BackgroundImageFix"/>
<feGaussianBlur in="BackgroundImageFix" stdDeviation="47.35"/>
<feComposite in2="SourceAlpha" operator="in" result="effect1_backgroundBlur_1782_5020"/>
<feBlend mode="normal" in="SourceGraphic" in2="effect1_backgroundBlur_1782_5020" result="shape"/>
</filter>
<filter id="filter3_b_1782_5020" x="123.958" y="202.96" width="332.738" height="328.658" filterUnits="userSpaceOnUse" color-interpolation-filters="sRGB">
<feFlood flood-opacity="0" result="BackgroundImageFix"/>
<feGaussianBlur in="BackgroundImageFix" stdDeviation="47.35"/>
<feComposite in2="SourceAlpha" operator="in" result="effect1_backgroundBlur_1782_5020"/>
<feBlend mode="normal" in="SourceGraphic" in2="effect1_backgroundBlur_1782_5020" result="shape"/>
</filter>
<filter id="filter4_b_1782_5020" x="50.9582" y="-155.04" width="332.738" height="328.658" filterUnits="userSpaceOnUse" color-interpolation-filters="sRGB">
<feFlood flood-opacity="0" result="BackgroundImageFix"/>
<feGaussianBlur in="BackgroundImageFix" stdDeviation="47.35"/>
<feComposite in2="SourceAlpha" operator="in" result="effect1_backgroundBlur_1782_5020"/>
<feBlend mode="normal" in="SourceGraphic" in2="effect1_backgroundBlur_1782_5020" result="shape"/>
</filter>
<radialGradient id="paint0_radial_1782_5020" cx="0" cy="0" r="1" gradientUnits="userSpaceOnUse" gradientTransform="translate(213.5 18.5) rotate(82.8317) scale(492.852 439.701)">
<stop stop-color="#FFEE68"/>
<stop offset="1" stop-color="#F7DF1E"/>
</radialGradient>
<clipPath id="clip0_1782_5020">
<rect width="364" height="408" rx="35" fill="white"/>
</clipPath>
</defs>
</svg>
