<svg width="364" height="408" viewBox="0 0 364 408" fill="none" xmlns="http://www.w3.org/2000/svg">
<g clip-path="url(#clip0_1782_5280)">
<rect width="364" height="408" rx="35" fill="url(#paint0_radial_1782_5280)"/>
<g filter="url(#filter0_b_1782_5280)">
<rect x="-22.5625" y="102.891" width="116.055" height="100.932" rx="12" transform="rotate(-33.7046 -22.5625 102.891)" fill="#FFEAA8"/>
</g>
<g filter="url(#filter1_b_1782_5280)">
<rect x="148.049" y="178.777" width="116.055" height="100.932" rx="12" transform="rotate(-33.7046 148.049 178.777)" fill="#FFEAA8"/>
</g>
<g filter="url(#filter2_b_1782_5280)">
<rect x="-18.5215" y="288.918" width="116.055" height="100.932" rx="12" transform="rotate(-33.7046 -18.5215 288.918)" fill="#FFEAA8"/>
</g>
<g filter="url(#filter3_b_1782_5280)">
<rect x="213.125" y="358.113" width="116.055" height="100.932" rx="12" transform="rotate(-33.7046 213.125 358.113)" fill="#FFEAA8"/>
</g>
<g filter="url(#filter4_b_1782_5280)">
<rect x="141.973" y="-0.257812" width="116.055" height="100.932" rx="12" transform="rotate(-33.7046 141.973 -0.257812)" fill="#FFEAA8"/>
</g>
<g opacity="0.36" clip-path="url(#clip1_1782_5280)">
<path d="M288.997 344.894L273.483 355.358C272.381 356.101 271.989 357.508 272.478 358.691L271.976 359.03C270.215 360.218 269.748 362.617 270.936 364.379L285.094 385.369C286.282 387.13 288.682 387.596 290.443 386.408L306.413 375.636C308.174 374.448 308.641 372.049 307.453 370.287L307.015 369.638C307.581 368.742 307.605 367.559 306.975 366.626L292.817 345.636C291.969 344.378 290.255 344.045 288.997 344.894ZM274.565 357.948C274.396 357.696 274.462 357.353 274.714 357.183L290.228 346.719C290.48 346.549 290.823 346.616 290.992 346.867L305.15 367.857C305.32 368.109 305.254 368.452 305.002 368.621L289.487 379.086C289.235 379.256 288.893 379.189 288.723 378.937L274.565 357.948ZM305.182 373.811L289.212 384.583C288.457 385.092 287.429 384.892 286.919 384.138L272.762 363.148C272.253 362.393 272.452 361.364 273.207 360.855L273.663 360.548L286.898 380.169C287.747 381.427 289.46 381.76 290.718 380.911L305.32 371.062L305.628 371.519C306.137 372.273 305.937 373.302 305.182 373.811Z" fill="#AD9855"/>
<path d="M282.536 363.858C282.769 363.701 282.942 363.455 283.001 363.156L283.979 358.124L288.247 358.953C288.844 359.069 289.421 358.68 289.537 358.083L290.218 354.579L290.666 354.666C290.957 354.722 291.254 354.659 291.492 354.498C291.58 354.439 291.661 354.365 291.73 354.281C291.986 353.966 292.048 353.536 291.892 353.161L290.809 350.571C290.667 350.231 290.365 349.986 290.004 349.916C289.642 349.846 289.271 349.96 289.011 350.222L287.037 352.217C286.752 352.506 286.648 352.928 286.768 353.316C286.888 353.703 287.211 353.994 287.61 354.072L288.058 354.159L287.586 356.582L283.318 355.753C282.722 355.637 282.144 356.026 282.028 356.623L280.84 362.736C280.724 363.333 281.113 363.91 281.71 364.026C282.009 364.084 282.302 364.016 282.536 363.858Z" fill="#AD9855"/>
<path d="M284.997 367.507L295.949 360.12C296.452 359.78 296.585 359.095 296.246 358.592C295.906 358.088 295.221 357.955 294.717 358.295L283.766 365.681C283.262 366.021 283.129 366.706 283.469 367.209C283.809 367.713 284.493 367.846 284.997 367.507Z" fill="#AD9855"/>
<path d="M297.796 362.86L287.301 369.939C286.798 370.279 286.664 370.964 287.004 371.467C287.344 371.971 288.029 372.104 288.532 371.764L299.027 364.685C299.531 364.346 299.664 363.661 299.324 363.157C298.985 362.653 298.3 362.52 297.796 362.86Z" fill="#AD9855"/>
<path d="M295.238 369.894L289.762 373.588C289.258 373.927 289.125 374.612 289.465 375.116C289.805 375.619 290.49 375.753 290.993 375.413L296.469 371.719C296.973 371.38 297.106 370.695 296.766 370.191C296.426 369.687 295.742 369.554 295.238 369.894Z" fill="#AD9855"/>
</g>
<g clip-path="url(#clip2_1782_5280)">
<path d="M219.143 -12.238L196.691 2.90598C194.988 4.0542 194.538 6.37311 195.686 8.07542L207.498 25.5879C208.646 27.2902 210.965 27.741 212.668 26.5928L219.684 21.8603L221.955 25.228L219.43 26.9317C218.965 27.2454 218.842 27.8766 219.156 28.3416C219.469 28.8066 220.1 28.9293 220.565 28.6156L234.037 19.5292C234.502 19.2156 234.624 18.5844 234.311 18.1194C233.997 17.6543 233.366 17.5317 232.901 17.8453L230.375 19.549L228.103 16.1813L235.12 11.4487C236.822 10.3005 237.273 7.98162 236.124 6.2793L224.312 -11.2332C223.164 -12.9355 220.845 -13.3863 219.143 -12.238ZM197.37 6.93962C196.848 6.16586 197.053 5.11178 197.826 4.58987L220.278 -10.5541C221.052 -11.076 222.106 -10.8712 222.628 -10.0974L231.98 3.76667L206.721 20.8037L197.37 6.93962ZM228.691 20.6848L223.639 24.0922L221.368 20.7245L226.419 17.3171L228.691 20.6848ZM234.44 7.41511C234.962 8.18886 234.757 9.24295 233.984 9.76485L211.532 24.9089C210.758 25.4308 209.704 25.2259 209.182 24.4521L207.857 22.4876L233.115 5.45056L234.44 7.41511Z" fill="#EACD71"/>
<path d="M218.646 -6.92109C216.79 -5.66934 216.877 -2.89328 218.811 -1.76582L218.301 1.04501C217.017 1.21509 215.962 2.18641 215.714 3.49621L212.467 3.96937C211.678 2.25117 209.542 1.6699 207.995 2.71341C206.213 3.91532 206.202 6.55599 207.993 7.76293L207.534 10.6972C205.358 11.0708 204.297 13.5772 205.528 15.402C206.468 16.7948 208.365 17.1636 209.758 16.2242C211.641 14.9537 211.513 12.1354 209.537 11.0383L209.969 8.27297C211.237 8.16209 212.322 7.2658 212.648 5.99563L216.02 5.50419C216.878 7.09907 218.922 7.59253 220.409 6.58968C222.244 5.35213 222.186 2.61339 220.289 1.46227L220.806 -1.38352C223.011 -1.71409 224.125 -4.24688 222.876 -6.09895C221.936 -7.49167 220.039 -7.86049 218.646 -6.92109ZM208.622 14.5403C208.158 14.8534 207.525 14.7304 207.212 14.2662C206.899 13.8021 207.022 13.1695 207.486 12.8564C207.95 12.5433 208.583 12.6663 208.896 13.1304C209.209 13.5946 209.086 14.2272 208.622 14.5403ZM210.266 6.0812C209.802 6.39429 209.169 6.27132 208.856 5.80716C208.543 5.34299 208.666 4.71039 209.13 4.39731C209.595 4.08422 210.227 4.20719 210.54 4.67136C210.853 5.13552 210.73 5.76812 210.266 6.0812ZM219.273 4.90579C218.809 5.21887 218.177 5.09591 217.864 4.63174C217.55 4.16757 217.673 3.53498 218.138 3.22189C218.602 2.90881 219.234 3.03177 219.547 3.49594C219.86 3.96011 219.738 4.5927 219.273 4.90579ZM220.918 -3.5533C220.453 -3.24021 219.821 -3.36318 219.508 -3.82735C219.195 -4.29151 219.318 -4.92411 219.782 -5.23719C220.246 -5.55028 220.879 -5.42731 221.192 -4.96315C221.505 -4.49898 221.382 -3.86638 220.918 -3.5533Z" fill="#EACD71"/>
</g>
<g opacity="0.7">
<path d="M35.0987 83.2269C20.7287 92.9196 25.8294 98.546 25.8294 98.546L30.2 104.991L43.913 95.7417L45.2204 97.68L26.0608 110.603C26.0608 110.603 16.162 115.763 25.942 130.262C35.722 144.762 43.4011 138.834 43.4011 138.834L48.191 135.603L43.6527 128.875C43.6527 128.875 37.981 121.023 46.1369 115.522C54.2929 110.021 59.7377 106.348 59.7377 106.348C59.7377 106.348 67.4625 101.317 62.3978 93.8087C57.3332 86.3001 54.0236 81.3934 54.0236 81.3934C54.0236 81.3934 50.116 73.0976 35.0987 83.2269ZM30.4657 92.6684C31.83 91.7482 33.6765 92.1071 34.5967 93.4714C35.517 94.8358 35.1581 96.6823 33.7937 97.6025C32.4294 98.5228 30.5829 98.1638 29.6627 96.7995C28.7424 95.4352 29.1013 93.5887 30.4657 92.6684Z" fill="#FFC819"/>
<path d="M73.489 139.264C87.859 129.571 82.7583 123.945 82.7583 123.945L78.3877 117.5L64.6747 126.749L63.3673 124.811L82.5269 111.888C82.5269 111.888 92.4257 106.728 82.6457 92.2286C72.8657 77.7292 65.1866 83.6569 65.1866 83.6569L60.3967 86.8878L64.935 93.6161C64.935 93.6161 70.6067 101.468 62.4508 106.969C54.2948 112.47 48.85 116.143 48.85 116.143C48.85 116.143 41.1252 121.174 46.1899 128.682C51.2545 136.191 54.5641 141.098 54.5641 141.098C54.5641 141.098 58.4717 149.393 73.489 139.264ZM78.1221 129.823C76.7577 130.743 74.9112 130.384 73.991 129.02C73.0707 127.655 73.4296 125.809 74.794 124.889C76.1583 123.968 78.0048 124.327 78.9251 125.692C79.8453 127.056 79.4864 128.902 78.1221 129.823Z" fill="#FFC819"/>
</g>
<g opacity="0.52">
<path d="M214.99 187.983C215.051 187.951 215.114 187.931 215.18 187.918C215.247 187.909 215.315 187.907 215.38 187.919C215.465 187.933 215.55 187.953 215.636 187.978L223.247 190.4C223.007 190.115 222.783 189.817 222.574 189.508L219.484 184.927L221.253 183.733L227.086 192.38L226.039 193.086C225.909 193.18 225.759 193.246 225.602 193.279C225.438 193.301 225.271 193.283 225.115 193.225L217.568 190.831C217.68 190.972 217.789 191.112 217.894 191.251C218 191.39 218.094 191.523 218.18 191.65L221.307 196.286L219.54 197.478L213.704 188.825L214.76 188.113C214.832 188.065 214.91 188.02 214.99 187.983V187.983ZM225.525 184.477L228.159 188.382C228.365 188.687 228.592 188.876 228.842 188.948C229.115 189.018 229.401 188.958 229.623 188.786C229.819 188.654 229.985 188.482 230.106 188.278C230.231 188.063 230.324 187.826 230.382 187.582L227.424 183.197L229.264 181.956L233.415 188.109L232.276 188.877C232.183 188.952 232.065 188.993 231.945 188.993C231.824 188.992 231.708 188.95 231.614 188.874L231.263 188.593C231.224 188.784 231.171 188.971 231.106 189.154C230.972 189.521 230.764 189.857 230.493 190.139C230.341 190.299 230.172 190.441 229.988 190.562C229.686 190.774 229.341 190.919 228.978 190.988C228.65 191.047 228.313 191.031 227.993 190.941C227.663 190.847 227.355 190.688 227.088 190.473C226.79 190.232 226.53 189.946 226.318 189.627L223.683 185.72L225.525 184.477ZM234.603 187.31L230.451 181.155L231.591 180.386C231.69 180.313 231.808 180.273 231.93 180.268C232.048 180.271 232.162 180.313 232.251 180.39L232.573 180.656C232.602 180.484 232.642 180.311 232.693 180.143C232.744 179.977 232.812 179.821 232.898 179.669C233.082 179.338 233.343 179.056 233.66 178.848C233.983 178.611 234.377 178.492 234.777 178.512C235.163 178.545 235.534 178.681 235.849 178.908C235.824 178.66 235.839 178.408 235.898 178.166C235.955 177.937 236.041 177.72 236.159 177.515C236.277 177.315 236.418 177.13 236.58 176.963C236.742 176.797 236.921 176.648 237.113 176.519C237.429 176.297 237.783 176.135 238.157 176.042C238.484 175.964 238.824 175.962 239.151 176.037C239.486 176.122 239.798 176.275 240.067 176.492C240.381 176.744 240.655 177.046 240.877 177.386L243.515 181.296L241.674 182.538L239.038 178.628C238.608 177.991 238.12 177.859 237.575 178.227C237.339 178.375 237.175 178.616 237.121 178.891C237.067 179.165 237.144 179.457 237.353 179.766L239.99 183.677L238.152 184.917L235.514 181.006C235.276 180.654 235.04 180.452 234.807 180.405C234.571 180.356 234.32 180.422 234.051 180.604C233.886 180.715 233.751 180.86 233.655 181.034C233.554 181.218 233.482 181.414 233.441 181.619L236.444 186.071L234.603 187.31ZM244.642 176.333L246.591 179.223L244.585 180.577L238.753 171.93L241.803 169.872C242.327 169.502 242.906 169.217 243.519 169.028C243.997 168.882 244.501 168.836 244.998 168.893C245.441 168.951 245.863 169.114 246.231 169.367C246.606 169.631 246.928 169.966 247.18 170.348C247.458 170.751 247.659 171.202 247.775 171.677C247.878 172.123 247.874 172.587 247.763 173.031C247.634 173.518 247.403 173.973 247.086 174.364C246.691 174.858 246.219 175.284 245.687 175.63L244.642 176.333ZM243.621 174.82L244.666 174.116C245.188 173.764 245.482 173.386 245.542 172.981C245.602 172.577 245.485 172.155 245.182 171.705C245.06 171.52 244.907 171.357 244.73 171.225C244.566 171.105 244.377 171.024 244.177 170.988C243.964 170.954 243.745 170.967 243.536 171.025C243.278 171.1 243.034 171.216 242.813 171.37L241.769 172.074L243.621 174.82ZM255.754 175.368C255.784 175.501 255.777 175.64 255.738 175.772C255.667 175.916 255.554 176.035 255.415 176.114L254.034 177.045L253.543 173.752L247.297 169.791L248.922 168.695C249.038 168.609 249.179 168.565 249.322 168.571C249.437 168.576 249.547 168.616 249.64 168.683L252.439 170.656C252.693 170.831 252.935 171.024 253.164 171.234C253.119 171.079 253.078 170.925 253.043 170.772C253.008 170.619 252.97 170.46 252.928 170.306L252.062 167.047C252.031 166.929 252.042 166.804 252.092 166.693C252.142 166.575 252.223 166.471 252.328 166.4L253.812 165.399L255.754 175.368Z" fill="#D6B23E"/>
<path d="M196.253 196.503L191.328 197.128L188.652 201.861L193.706 201.209L196.253 196.503ZM198.512 196.217L203.677 195.564L201.033 200.266L195.974 200.918L198.512 196.217ZM201.854 190.068L207.15 189.384L204.81 193.548L199.634 194.206L201.854 190.068ZM199.572 190.364L194.804 190.98L192.465 195.118L197.385 194.491L199.572 190.364ZM207.137 207.586L210.418 212.449L213.28 207.384L209.994 202.521L207.137 207.586ZM208.847 200.825L205.596 196.014L202.735 201.059L205.983 205.875L208.847 200.825ZM213.423 196.427L216.717 201.31L214.273 205.63L210.992 200.773L213.423 196.427ZM212.272 194.72L209.044 189.935L206.592 194.258L209.85 199.079L212.272 194.72Z" fill="#D6B23E"/>
<path d="M201.21 202.087L197.317 202.585L201.579 208.902C201.579 208.902 192.918 203.734 192.132 203.277C192.029 203.218 191.789 203.238 191.728 203.244C190.861 203.343 188.355 203.656 188.355 203.656L195.888 214.823L199.407 214.464L195.469 208.625C195.469 208.625 203.548 213.015 203.633 213.065C203.72 213.115 204.552 213.588 205.098 213.584C205.825 213.578 208.852 213.422 208.852 213.422L201.21 202.087Z" fill="#D6B23E"/>
</g>
<g opacity="0.47">
<path d="M48.4058 328.107C47.595 328.654 46.5447 328.874 45.584 328.566L47.9779 332.115L46.3563 333.209L40.4474 324.449L41.9143 323.459L42.6197 324.381C42.6235 323.301 43.2537 322.307 44.1069 321.733C45.7412 320.63 47.8701 321.186 49.0958 323.004C50.3214 324.821 50.0405 327.006 48.4057 328.107L48.4058 328.107ZM44.4161 323.276C43.4694 323.914 43.1961 325.176 44.0351 326.42C44.874 327.664 46.1416 327.886 47.0922 327.245C48.0425 326.604 48.3096 325.346 47.4707 324.102C46.6318 322.859 45.3657 322.635 44.4161 323.276ZM57.2452 321.902L56.5391 320.977C56.5354 322.056 55.9049 323.051 55.0531 323.625C53.4181 324.728 51.2898 324.17 50.0645 322.354C48.8395 320.538 49.117 318.357 50.7553 317.253C51.6067 316.679 52.7675 316.47 53.7676 316.868L53.1738 315.866L54.6411 314.877L58.713 320.914L57.2452 321.902ZM52.0684 318.115C51.1217 318.753 50.8492 320.015 51.6881 321.258C52.527 322.502 53.7946 322.725 54.7453 322.083C55.6956 321.442 55.9641 320.184 55.1257 318.941C54.2875 317.698 53.0219 317.478 52.0684 318.115ZM64.3849 317.089L62.1299 313.746C61.3381 312.572 60.6684 312.454 59.9282 312.953C59.1602 313.471 58.7923 314.735 59.3571 315.574L61.6288 318.942L60.0086 320.035L55.9388 314.001L57.4242 312.999L58.2478 314.071C58.135 313.029 58.6948 311.899 59.6169 311.277C61.2233 310.194 62.5794 310.906 63.588 312.401L66.0102 315.993L64.3849 317.089ZM71.9491 311.988L71.2424 311.061C71.2394 312.141 70.6089 313.135 69.7561 313.71C68.1214 314.813 65.993 314.256 64.7677 312.439C63.5425 310.623 63.8211 308.443 65.4583 307.338C66.2684 306.792 67.3199 306.571 68.2799 306.879L66.1404 303.707L67.761 302.614L73.416 310.998L71.9491 311.988ZM66.7749 308.202C65.8242 308.844 65.555 310.103 66.3939 311.346C67.2328 312.59 68.4999 312.812 69.4509 312.172C70.4016 311.531 70.6699 310.272 69.831 309.028C68.9921 307.784 67.7245 307.562 66.7749 308.202ZM79.5074 306.891L78.8016 305.965C78.7979 307.045 78.1673 308.039 77.315 308.613C75.68 309.716 73.552 309.159 72.327 307.342C71.1017 305.526 71.3798 303.345 73.0175 302.242C73.8693 301.667 75.0299 301.458 76.0304 301.856L75.4366 300.855L76.9075 299.862L80.9787 305.898L79.5074 306.891ZM74.3321 303.105C73.3818 303.746 73.1132 305.005 73.9521 306.248C74.791 307.492 76.0589 307.715 77.0092 307.074C77.9595 306.433 78.2282 305.174 77.3892 303.93C76.5503 302.686 75.2827 302.464 74.3321 303.105ZM84.699 303.675C83.8417 304.243 82.8469 304.57 81.8195 304.621L81.3284 303.32C82.0154 303.284 83.0109 303.162 83.905 302.559C84.5477 302.126 84.8632 301.628 84.5235 301.125C84.2317 300.692 83.667 300.849 82.7101 301.21C81.0128 301.887 79.9537 301.463 79.3794 300.61C78.7409 299.663 78.8761 298.266 80.5111 297.163C81.5035 296.494 82.6619 296.344 82.9293 296.325L83.3875 297.571C82.6451 297.609 81.9256 297.841 81.3016 298.245C80.6447 298.688 80.4738 299.129 80.7189 299.492C80.9918 299.897 81.5343 299.796 82.2806 299.516C84.0992 298.778 85.2418 299.085 85.7887 299.895C86.6633 301.192 86.2493 302.629 84.699 303.675ZM38.4668 283.915L41.346 281.973L45.3789 287.952L42.4997 289.894L38.4668 283.915ZM46.7506 296.197L49.6297 294.254L53.6624 300.233L50.7832 302.175L46.7506 296.197Z" fill="#D6B23E"/>
<path d="M43.6777 291.641L46.5569 289.699L48.4596 292.519L45.5804 294.461L43.6777 291.641Z" fill="#D6B23E"/>
<path d="M37.1582 291.953L40.0374 290.011L53.4422 309.885L50.563 311.827L37.1582 291.953ZM54.6084 298.076L57.4879 296.133L61.5206 302.112L58.641 304.054L54.6084 298.076ZM46.3183 285.785L49.1979 283.843L53.2305 289.821L50.351 291.764L46.3183 285.785Z" fill="#D6B23E"/>
<path d="M51.5273 293.508L54.4069 291.566L56.3093 294.386L53.4298 296.328L51.5273 293.508Z" fill="#D6B23E"/>
<path d="M46.4766 276.25L49.3561 274.308L62.7606 294.181L59.8811 296.123L46.4766 276.25Z" fill="#D6B23E"/>
</g>
</g>
<defs>
<filter id="filter0_b_1782_5280" x="-112.622" y="-51.5672" width="332.673" height="328.482" filterUnits="userSpaceOnUse" color-interpolation-filters="sRGB">
<feFlood flood-opacity="0" result="BackgroundImageFix"/>
<feGaussianBlur in="BackgroundImageFix" stdDeviation="47.35"/>
<feComposite in2="SourceAlpha" operator="in" result="effect1_backgroundBlur_1782_5280"/>
<feBlend mode="normal" in="SourceGraphic" in2="effect1_backgroundBlur_1782_5280" result="shape"/>
</filter>
<filter id="filter1_b_1782_5280" x="57.9895" y="24.3195" width="332.673" height="328.482" filterUnits="userSpaceOnUse" color-interpolation-filters="sRGB">
<feFlood flood-opacity="0" result="BackgroundImageFix"/>
<feGaussianBlur in="BackgroundImageFix" stdDeviation="47.35"/>
<feComposite in2="SourceAlpha" operator="in" result="effect1_backgroundBlur_1782_5280"/>
<feBlend mode="normal" in="SourceGraphic" in2="effect1_backgroundBlur_1782_5280" result="shape"/>
</filter>
<filter id="filter2_b_1782_5280" x="-108.581" y="134.46" width="332.673" height="328.482" filterUnits="userSpaceOnUse" color-interpolation-filters="sRGB">
<feFlood flood-opacity="0" result="BackgroundImageFix"/>
<feGaussianBlur in="BackgroundImageFix" stdDeviation="47.35"/>
<feComposite in2="SourceAlpha" operator="in" result="effect1_backgroundBlur_1782_5280"/>
<feBlend mode="normal" in="SourceGraphic" in2="effect1_backgroundBlur_1782_5280" result="shape"/>
</filter>
<filter id="filter3_b_1782_5280" x="123.066" y="203.655" width="332.673" height="328.482" filterUnits="userSpaceOnUse" color-interpolation-filters="sRGB">
<feFlood flood-opacity="0" result="BackgroundImageFix"/>
<feGaussianBlur in="BackgroundImageFix" stdDeviation="47.35"/>
<feComposite in2="SourceAlpha" operator="in" result="effect1_backgroundBlur_1782_5280"/>
<feBlend mode="normal" in="SourceGraphic" in2="effect1_backgroundBlur_1782_5280" result="shape"/>
</filter>
<filter id="filter4_b_1782_5280" x="51.9133" y="-154.716" width="332.673" height="328.482" filterUnits="userSpaceOnUse" color-interpolation-filters="sRGB">
<feFlood flood-opacity="0" result="BackgroundImageFix"/>
<feGaussianBlur in="BackgroundImageFix" stdDeviation="47.35"/>
<feComposite in2="SourceAlpha" operator="in" result="effect1_backgroundBlur_1782_5280"/>
<feBlend mode="normal" in="SourceGraphic" in2="effect1_backgroundBlur_1782_5280" result="shape"/>
</filter>
<radialGradient id="paint0_radial_1782_5280" cx="0" cy="0" r="1" gradientUnits="userSpaceOnUse" gradientTransform="translate(213.5 18.5) rotate(82.8317) scale(492.852 439.701)">
<stop stop-color="#FFD346"/>
<stop offset="0.397707" stop-color="#FFDE76"/>
<stop offset="0.890535" stop-color="#FFC200"/>
</radialGradient>
<clipPath id="clip0_1782_5280">
<rect width="364" height="408" rx="35" fill="white"/>
</clipPath>
<clipPath id="clip1_1782_5280">
<rect width="37.5741" height="37.5741" fill="white" transform="translate(263 361.012) rotate(-34)"/>
</clipPath>
<clipPath id="clip2_1782_5280">
<rect width="36.9758" height="36.9758" fill="white" transform="translate(192 4.67578) rotate(-34)"/>
</clipPath>
</defs>
</svg>
