<svg width="604" height="648" viewBox="0 0 604 648" fill="none" xmlns="http://www.w3.org/2000/svg">
<g filter="url(#filter0_d_1782_5020)">
<g clip-path="url(#clip0_1782_5020)">
<g opacity="0.09">
<line x1="83" y1="381.905" x2="1594.58" y2="381.905" stroke="#222020" stroke-width="1.2607"/>
<line x1="83" y1="220.534" x2="1594.58" y2="220.534" stroke="#222020" stroke-width="1.2607"/>
<line x1="83" y1="301.221" x2="1594.58" y2="301.221" stroke="#222020" stroke-width="1.2607"/>
<line x1="83" y1="462.588" x2="1594.58" y2="462.588" stroke="#222020" stroke-width="1.2607"/>
<line x1="83" y1="139.85" x2="1594.58" y2="139.85" stroke="#222020" stroke-width="1.2607"/>
<line x1="130.275" y1="30.8008" x2="130.275" y2="1198.21" stroke="#222020" stroke-width="1.2607"/>
<line x1="291.646" y1="30.8008" x2="291.646" y2="1198.21" stroke="#222020" stroke-width="1.2607"/>
<line x1="210.962" y1="30.8008" x2="210.962" y2="1198.21" stroke="#222020" stroke-width="1.2607"/>
<line x1="372.332" y1="30.8008" x2="372.331" y2="1198.21" stroke="#222020" stroke-width="1.2607"/>
</g>
<g opacity="0.5">
<rect x="291.934" y="219.559" width="81.3723" height="82.5184" fill="#D9AB52" fill-opacity="0.2"/>
<rect x="210.561" y="139.332" width="81.3723" height="80.2262" fill="#D9AB52" fill-opacity="0.2"/>
<rect x="104" y="207" width="81.3723" height="80.2262" fill="#D9AB52" fill-opacity="0.2"/>
<rect x="210.561" y="219.559" width="81.3723" height="82.5184" fill="#D9AB52" fill-opacity="0.2"/>
<rect x="291.934" y="381.156" width="80.2262" height="81.3723" fill="#D9AB52" fill-opacity="0.2"/>
</g>
<g filter="url(#filter1_b_1782_5020)">
<rect x="101" y="203" width="87.6214" height="90.6559" rx="12" fill="#FFE61F"/>
</g>
<path d="M167.183 273.936C168.223 275.623 169.575 276.863 171.966 276.863C173.974 276.863 175.258 275.865 175.258 274.486C175.258 272.833 173.939 272.248 171.728 271.286L170.516 270.769C167.018 269.288 164.694 267.431 164.694 263.507C164.694 259.892 167.464 257.141 171.794 257.141C174.876 257.141 177.092 258.207 178.689 261L174.914 263.409C174.083 261.928 173.186 261.344 171.794 261.344C170.374 261.344 169.474 262.24 169.474 263.409C169.474 264.855 170.375 265.441 172.455 266.336L173.667 266.852C177.786 268.609 180.111 270.399 180.111 274.424C180.111 278.763 176.683 281.141 172.078 281.141C167.576 281.141 164.667 279.008 163.244 276.212L167.183 273.936ZM150.058 274.354C150.819 275.697 151.512 276.833 153.178 276.833C154.77 276.833 155.775 276.213 155.775 273.804V257.416H160.623V273.87C160.623 278.86 157.68 281.132 153.384 281.132C149.502 281.132 147.255 279.135 146.111 276.729L150.058 274.354Z" fill="black"/>
<g filter="url(#filter2_b_1782_5020)">
<rect x="220" y="235" width="57.6127" height="57.9467" rx="12" fill="#FFE61F" fill-opacity="0.13"/>
</g>
<g filter="url(#filter3_b_1782_5020)">
<rect x="303" y="233" width="57.6127" height="57.9467" rx="12" fill="#FFE61F" fill-opacity="0.13"/>
</g>
<g filter="url(#filter4_b_1782_5020)">
<rect x="221.277" y="148.152" width="57.6127" height="57.9467" rx="12" fill="#FFE61F" fill-opacity="0.13"/>
</g>
<path d="M262.66 254.574H259.973V251.892C259.973 251.398 259.573 250.998 259.079 250.998H254.324L251.009 247.684C250.842 247.516 250.614 247.422 250.377 247.422H237.98C237.486 247.422 237.086 247.822 237.086 248.316V269.892C237.086 270.386 237.486 270.786 237.98 270.786H240.662V273.468C240.662 273.962 241.062 274.362 241.556 274.362H244.243V277.044C244.243 277.538 244.643 277.938 245.137 277.938H262.66C263.153 277.938 263.554 277.538 263.554 277.044V255.468C263.554 254.974 263.153 254.574 262.66 254.574ZM251.033 250.236L253.941 253.144H251.033V250.236ZM238.874 249.21H249.245V254.038C249.245 254.532 249.645 254.932 250.139 254.932H254.609V268.998H238.874V249.21ZM242.45 270.786H255.503C255.997 270.786 256.397 270.386 256.397 269.892V253.442C256.397 253.204 256.303 252.977 256.135 252.81L256.112 252.786H258.185V272.574H242.45V270.786ZM261.766 276.15H246.031V274.362H259.079C259.573 274.362 259.973 273.962 259.973 273.468V256.362H261.766V276.15Z" fill="#CFC577"/>
<path d="M241.556 252.784H245.134C245.628 252.784 246.028 252.384 246.028 251.89C246.028 251.397 245.628 250.996 245.134 250.996H241.556C241.062 250.996 240.662 251.397 240.662 251.89C240.662 252.384 241.062 252.784 241.556 252.784Z" fill="#CFC577"/>
<path d="M241.556 256.362H245.126C245.62 256.362 246.02 255.962 246.02 255.468C246.02 254.974 245.62 254.574 245.126 254.574H241.556C241.062 254.574 240.662 254.974 240.662 255.468C240.662 255.962 241.062 256.362 241.556 256.362Z" fill="#CFC577"/>
<path d="M251.003 258.148H241.556C241.062 258.148 240.662 258.549 240.662 259.042C240.662 259.536 241.062 259.936 241.556 259.936H251.003C251.497 259.936 251.897 259.536 251.897 259.042C251.897 258.549 251.497 258.148 251.003 258.148Z" fill="#CFC577"/>
<path d="M251.003 261.727H241.556C241.062 261.727 240.662 262.127 240.662 262.621C240.662 263.114 241.062 263.515 241.556 263.515H251.003C251.497 263.515 251.897 263.114 251.897 262.621C251.897 262.127 251.497 261.727 251.003 261.727Z" fill="#CFC577"/>
<path d="M251.003 265.301H241.556C241.062 265.301 240.662 265.701 240.662 266.195C240.662 266.689 241.062 267.089 241.556 267.089H251.003C251.497 267.089 251.897 266.689 251.897 266.195C251.897 265.701 251.497 265.301 251.003 265.301Z" fill="#CFC577"/>
<path d="M331.938 264.044C333.718 264.044 335.167 262.595 335.167 260.815C335.167 259.034 333.718 257.586 331.938 257.586C330.157 257.586 328.709 259.034 328.709 260.815C328.709 262.595 330.157 264.044 331.938 264.044ZM331.938 258.806C333.046 258.806 333.947 259.707 333.947 260.815C333.947 261.923 333.046 262.824 331.938 262.824C330.83 262.824 329.925 261.923 329.925 260.815C329.925 259.707 330.83 258.806 331.938 258.806Z" fill="#D1C779"/>
<path d="M336.84 252.555C337.558 252.555 338.139 251.974 338.139 251.256C338.139 250.538 337.558 249.961 336.84 249.961C336.122 249.961 335.545 250.542 335.545 251.256C335.545 251.97 336.13 252.555 336.84 252.555ZM336.84 251.75C336.57 251.75 336.35 251.53 336.35 251.256C336.35 250.982 336.57 250.766 336.84 250.766C337.11 250.766 337.334 250.986 337.334 251.256C337.334 251.526 337.114 251.75 336.84 251.75Z" fill="#D1C779"/>
<path d="M343.081 249.231C342.604 248.75 341.965 248.484 341.288 248.484H322.583C321.184 248.484 320.047 249.622 320.047 251.02V271.265C320.047 272.664 321.184 273.801 322.583 273.801H341.284C342.683 273.801 343.824 272.664 343.824 271.265V251.02C343.824 250.348 343.563 249.709 343.081 249.231ZM341.288 272.577H322.583C321.856 272.577 321.267 271.988 321.267 271.261V254.033H342.604V271.265C342.604 271.988 342.015 272.577 341.288 272.577ZM322.583 249.705H341.284C342.01 249.705 342.604 250.294 342.604 251.02V252.813H321.267V251.02C321.267 250.294 321.856 249.705 322.583 249.705Z" fill="#D1C779"/>
<path d="M331.937 254.992C327.347 254.992 323.611 258.727 323.611 263.318C323.611 265.107 324.172 266.812 325.226 268.244L325.255 268.29C325.4 268.485 325.562 268.68 325.778 268.921C325.857 269.008 325.94 269.095 326.027 269.178L326.143 269.294C326.197 269.348 326.255 269.406 326.317 269.46C326.359 269.493 326.396 269.527 326.438 269.564C326.5 269.622 326.566 269.68 326.624 269.73C327.708 270.626 329.003 271.237 330.414 271.498L330.488 271.519C330.634 271.544 330.779 271.564 330.92 271.581L330.986 271.589C331.115 271.602 331.24 271.614 331.372 271.627C331.406 271.627 331.443 271.631 331.468 271.631C331.626 271.639 331.779 271.643 331.937 271.643C332.095 271.643 332.252 271.639 332.427 271.631C332.447 271.627 332.464 271.627 332.497 271.627C332.63 271.618 332.763 271.606 332.896 271.589L332.954 271.581C333.099 271.564 333.244 271.544 333.356 271.519H333.46L333.472 271.502C334.859 271.245 336.162 270.631 337.249 269.73C337.299 269.688 337.345 269.647 337.39 269.605L337.565 269.456C337.623 269.402 337.685 269.348 337.743 269.29L337.855 269.178C337.938 269.095 338.021 269.008 338.1 268.921L338.158 268.858C338.341 268.647 338.49 268.468 338.631 268.282L338.648 268.244C339.706 266.808 340.267 265.107 340.267 263.318C340.267 258.727 336.523 254.992 331.937 254.992ZM330.48 270.278C328.949 269.954 327.55 269.12 326.525 267.92C327.874 266.331 329.837 265.422 331.929 265.422C334.02 265.422 335.988 266.331 337.336 267.92C336.32 269.12 334.925 269.954 333.385 270.274H333.365C333.257 270.299 333.149 270.319 333.028 270.34C333.004 270.344 332.987 270.344 332.95 270.348C332.871 270.361 332.792 270.369 332.684 270.382C332.626 270.386 332.572 270.394 332.51 270.394L332.294 270.411C332.049 270.423 331.8 270.427 331.547 270.411C331.509 270.411 331.468 270.406 331.426 270.402L331.157 270.377C331.078 270.369 330.995 270.361 330.916 270.348L330.829 270.336C330.717 270.319 330.609 270.299 330.505 270.278H330.48ZM331.937 256.217C335.855 256.217 339.042 259.4 339.042 263.318C339.042 264.584 338.706 265.816 338.067 266.899C336.486 265.181 334.269 264.202 331.937 264.202C329.604 264.202 327.384 265.181 325.803 266.899C325.168 265.812 324.832 264.579 324.832 263.318C324.832 259.4 328.019 256.217 331.937 256.217Z" fill="#D1C779"/>
<path d="M333.356 252.555C334.074 252.555 334.655 251.974 334.655 251.256C334.655 250.538 334.074 249.961 333.356 249.961C332.638 249.961 332.057 250.542 332.057 251.256C332.061 251.974 332.642 252.555 333.356 252.555ZM333.356 251.75C333.086 251.75 332.866 251.53 332.866 251.256C332.866 250.982 333.086 250.766 333.356 250.766C333.625 250.766 333.85 250.986 333.85 251.256C333.85 251.526 333.63 251.75 333.356 251.75Z" fill="#D1C779"/>
<path d="M340.324 252.555C341.038 252.555 341.623 251.974 341.623 251.256C341.623 250.538 341.038 249.961 340.324 249.961C339.611 249.961 339.025 250.542 339.025 251.256C339.025 251.97 339.611 252.555 340.324 252.555ZM340.324 250.766C340.594 250.766 340.818 250.986 340.818 251.256C340.818 251.526 340.594 251.75 340.324 251.75C340.055 251.75 339.831 251.53 339.831 251.256C339.831 250.982 340.055 250.766 340.324 250.766Z" fill="#D1C779"/>
<g filter="url(#filter5_b_1782_5020)">
<rect x="304" y="395" width="57.6127" height="57.9467" rx="12" fill="#FFE61F" fill-opacity="0.13"/>
</g>
<path d="M320.925 424.439C321.293 424.439 321.667 424.189 321.667 423.711V423.011H323.066V423.711C323.066 423.931 323.151 424.126 323.305 424.259C323.44 424.376 323.619 424.44 323.81 424.44C324.181 424.44 324.556 424.189 324.556 423.71V420.099C324.556 418.892 323.574 417.91 322.367 417.91C321.16 417.91 320.178 418.892 320.178 420.099V423.71C320.178 424.188 320.554 424.439 320.925 424.439H320.925ZM322.366 419.4C322.752 419.4 323.065 419.714 323.065 420.099V421.521H321.666V420.099C321.666 419.713 321.98 419.4 322.365 419.4H322.366Z" fill="#CFC577"/>
<path d="M325.975 424.435C326.346 424.435 326.72 424.185 326.72 423.706V422.284H327.419C328.627 422.284 329.608 421.303 329.608 420.095C329.608 418.888 328.627 417.906 327.419 417.906H325.975C325.564 417.906 325.23 418.24 325.23 418.651V423.707C325.23 424.186 325.605 424.436 325.975 424.436V424.435ZM326.72 420.795V419.395H327.419C327.805 419.395 328.119 419.709 328.119 420.095C328.119 420.48 327.805 420.794 327.419 420.794H326.72V420.795Z" fill="#CFC577"/>
<path d="M331.036 424.431C331.405 424.431 331.779 424.182 331.779 423.704V418.649C331.779 418.176 331.405 417.925 331.035 417.922C330.828 417.921 330.63 417.997 330.493 418.133C330.359 418.265 330.289 418.444 330.289 418.649V423.704C330.289 424.182 330.665 424.432 331.036 424.432V424.431Z" fill="#CFC577"/>
<path d="M347.643 407.797H318.753C317.546 407.797 316.564 408.779 316.564 409.986V433.097C316.564 434.304 317.546 435.286 318.753 435.286H347.643C348.85 435.286 349.832 434.304 349.832 433.097V409.986C349.832 408.779 348.85 407.797 347.643 407.797ZM318.054 409.986C318.054 409.6 318.368 409.286 318.753 409.286H347.643C348.029 409.286 348.342 409.601 348.342 409.986V413.574H318.054V409.986ZM348.342 415.064V433.097C348.342 433.483 348.028 433.796 347.643 433.796H318.753C318.368 433.796 318.054 433.482 318.054 433.097V415.064H348.342Z" fill="#CFC577"/>
<path d="M334.119 423.979C334.279 424.072 334.375 424.241 334.375 424.432C334.375 424.623 334.279 424.793 334.119 424.885C333.418 425.29 333.177 426.189 333.582 426.89C333.582 426.89 334.509 428.496 334.511 428.498C334.704 428.833 335.022 429.073 335.405 429.176C335.788 429.278 336.182 429.228 336.515 429.035C336.674 428.943 336.868 428.945 337.033 429.04C337.199 429.136 337.299 429.303 337.299 429.488C337.299 430.297 337.957 430.956 338.766 430.956H340.624C341.433 430.956 342.091 430.297 342.091 429.488C342.091 429.303 342.19 429.136 342.355 429.04C342.521 428.945 342.716 428.943 342.875 429.035C343.212 429.23 343.609 429.28 343.993 429.175C344.374 429.073 344.689 428.832 344.879 428.498L345.808 426.89C346.213 426.19 345.972 425.291 345.272 424.886C345.111 424.793 345.015 424.624 345.015 424.433C345.015 424.242 345.111 424.072 345.272 423.98C345.972 423.575 346.213 422.676 345.808 421.975C345.19 420.905 344.88 420.369 344.879 420.367C344.48 419.68 343.562 419.434 342.876 419.83C342.718 419.922 342.524 419.919 342.357 419.824C342.191 419.727 342.091 419.561 342.091 419.377C342.091 418.568 341.433 417.91 340.624 417.91H338.766C337.957 417.91 337.299 418.568 337.299 419.377C337.299 419.562 337.2 419.729 337.034 419.824C336.868 419.92 336.674 419.922 336.514 419.83C335.825 419.433 334.907 419.679 334.51 420.367L333.581 421.975C333.177 422.675 333.417 423.575 334.118 423.98L334.119 423.979ZM343.543 424.439C343.544 425.164 343.904 425.807 344.507 426.164L343.6 427.734C342.986 427.388 342.246 427.397 341.618 427.76C340.988 428.123 340.609 428.76 340.602 429.466H338.788C338.78 428.758 338.402 428.121 337.772 427.758C337.143 427.396 336.404 427.387 335.79 427.734L334.883 426.164C335.492 425.801 335.854 425.153 335.853 424.426C335.851 423.703 335.489 423.059 334.883 422.701L335.79 421.131C336.405 421.478 337.144 421.47 337.772 421.108C338.402 420.744 338.781 420.107 338.788 419.4H340.602C340.61 420.107 340.988 420.744 341.617 421.107C342.244 421.47 342.984 421.478 343.6 421.131L344.507 422.701C343.902 423.062 343.542 423.71 343.543 424.439Z" fill="#CFC577"/>
<path d="M339.701 421.523C338.095 421.523 336.789 422.83 336.789 424.435C336.789 426.04 338.095 427.346 339.701 427.346C341.306 427.346 342.612 426.04 342.612 424.435C342.612 422.83 341.306 421.523 339.701 421.523ZM341.122 424.435C341.122 425.219 340.485 425.857 339.701 425.857C338.916 425.857 338.279 425.219 338.279 424.435C338.279 423.651 338.916 423.013 339.701 423.013C340.485 423.013 341.122 423.651 341.122 424.435Z" fill="#CFC577"/>
<path d="M346.196 410.688H338.975C338.498 410.688 338.248 411.064 338.248 411.436C338.248 411.805 338.497 412.177 338.974 412.177H346.196C346.674 412.177 346.924 411.801 346.924 411.428C346.924 411.056 346.674 410.688 346.196 410.688Z" fill="#CFC577"/>
<path d="M320.198 410.688C319.787 410.688 319.453 411.021 319.453 411.432C319.453 411.843 319.787 412.177 320.198 412.177C320.609 412.177 320.943 411.843 320.943 411.432C320.943 411.021 320.609 410.688 320.198 410.688Z" fill="#CFC577"/>
<path d="M322.364 410.688C321.953 410.688 321.619 411.021 321.619 411.432C321.619 411.843 321.953 412.177 322.364 412.177C322.775 412.177 323.109 411.843 323.109 411.432C323.109 411.021 322.775 410.688 322.364 410.688Z" fill="#CFC577"/>
<path d="M324.534 410.684C324.123 410.684 323.789 411.017 323.789 411.428C323.789 411.839 324.123 412.173 324.534 412.173C324.945 412.173 325.279 411.839 325.279 411.428C325.279 411.017 324.945 410.684 324.534 410.684Z" fill="#CFC577"/>
<path d="M321.973 428.041C322.394 427.62 323.601 426.413 323.613 426.401C323.945 426.068 323.852 425.628 323.589 425.365C323.329 425.105 322.892 425.016 322.56 425.348L320.394 427.515C320.103 427.805 320.103 428.278 320.394 428.568C320.394 428.568 322.545 430.719 322.56 430.734C322.711 430.885 322.888 430.949 323.059 430.949C323.267 430.949 323.469 430.856 323.611 430.713C323.868 430.456 323.952 430.019 323.613 429.681L321.973 428.041L321.973 428.041Z" fill="#CFC577"/>
<path d="M329.392 425.348C329.061 425.018 328.61 425.113 328.352 425.37C328.092 425.629 328.004 426.067 328.339 426.401L329.979 428.041L328.338 429.682C328.005 430.015 328.097 430.456 328.359 430.718C328.501 430.859 328.695 430.951 328.897 430.951C329.065 430.951 329.239 430.886 329.392 430.735L331.558 428.568C331.849 428.277 331.849 427.805 331.558 427.515L329.392 425.348H329.392Z" fill="#CFC577"/>
<path d="M326.925 425.205C326.726 425.134 326.513 425.141 326.34 425.226C326.175 425.306 326.054 425.45 325.991 425.641C325.991 425.641 324.559 429.934 324.547 429.974C324.462 430.229 324.511 430.485 324.681 430.677C324.832 430.847 325.056 430.944 325.28 430.944C325.331 430.944 325.383 430.94 325.434 430.929C325.683 430.878 325.874 430.701 325.96 430.446C325.96 430.446 327.386 426.167 327.404 426.113C327.548 425.681 327.272 425.329 326.925 425.206V425.205Z" fill="#CFC577"/>
<path d="M262.294 162.031H238.207C236.791 162.031 235.639 163.183 235.639 164.6V188.686C235.639 190.102 236.791 191.255 238.207 191.255H262.294C263.71 191.255 264.862 190.102 264.862 188.686C264.862 187.927 264.862 165.361 264.862 164.6C264.862 163.183 263.71 162.031 262.294 162.031ZM237.351 164.6C237.351 164.128 237.735 163.744 238.207 163.744H262.294C262.766 163.744 263.15 164.128 263.15 164.6V165.741H237.351V164.6ZM263.15 188.686C263.15 189.158 262.766 189.542 262.294 189.542H238.207C237.735 189.542 237.351 189.158 237.351 188.686V167.454H263.15V188.686Z" fill="#AFA661"/>
<path d="M241.575 183.892H258.926C259.399 183.892 259.782 183.509 259.782 183.036V170.251C259.782 169.778 259.399 169.395 258.926 169.395H241.575C241.102 169.395 240.719 169.778 240.719 170.251V183.036C240.719 183.509 241.102 183.892 241.575 183.892ZM242.431 182.18V180.675L246.609 176.877L249.687 179.571C250.026 179.867 250.537 179.85 250.856 179.532L255.237 175.151L258.07 178.339V182.18H242.431ZM258.07 171.107V175.761L255.913 173.335C255.59 172.972 255.021 172.945 254.668 173.298L250.212 177.755L247.161 175.086C246.834 174.799 246.344 174.804 246.022 175.096L242.431 178.361V171.107H258.07Z" fill="#AFA661"/>
<path d="M248.88 185.832H247.053C246.581 185.832 246.197 186.215 246.197 186.688C246.197 187.161 246.581 187.544 247.053 187.544H248.88C249.353 187.544 249.736 187.161 249.736 186.688C249.736 186.215 249.353 185.832 248.88 185.832Z" fill="#AFA661"/>
<path d="M254.36 185.832H252.534C252.061 185.832 251.678 186.215 251.678 186.688C251.678 187.161 252.061 187.544 252.534 187.544H254.36C254.833 187.544 255.217 187.161 255.217 186.688C255.217 186.215 254.833 185.832 254.36 185.832Z" fill="#AFA661"/>
<path d="M242.796 185.626L242.488 185.934L242.18 185.626C241.846 185.291 241.304 185.291 240.97 185.626C240.635 185.96 240.635 186.502 240.97 186.837L241.883 187.75C242.217 188.084 242.759 188.084 243.094 187.75L244.007 186.837C244.341 186.502 244.341 185.96 244.007 185.626C243.672 185.291 243.13 185.291 242.796 185.626Z" fill="#AFA661"/>
</g>
<rect x="83.5" y="105.5" width="363" height="407" rx="34.5" stroke="#FFD54A" shape-rendering="crispEdges"/>
</g>
<defs>
<filter id="filter0_d_1782_5020" x="0.699997" y="0.699997" width="602.6" height="646.6" filterUnits="userSpaceOnUse" color-interpolation-filters="sRGB">
<feFlood flood-opacity="0" result="BackgroundImageFix"/>
<feColorMatrix in="SourceAlpha" type="matrix" values="0 0 0 0 0 0 0 0 0 0 0 0 0 0 0 0 0 0 127 0" result="hardAlpha"/>
<feOffset dx="37" dy="15"/>
<feGaussianBlur stdDeviation="59.65"/>
<feComposite in2="hardAlpha" operator="out"/>
<feColorMatrix type="matrix" values="0 0 0 0 1 0 0 0 0 0.835294 0 0 0 0 0.290196 0 0 0 0.76 0"/>
<feBlend mode="normal" in2="BackgroundImageFix" result="effect1_dropShadow_1782_5020"/>
<feBlend mode="normal" in="SourceGraphic" in2="effect1_dropShadow_1782_5020" result="shape"/>
</filter>
<filter id="filter1_b_1782_5020" x="6.3" y="108.3" width="277.021" height="280.056" filterUnits="userSpaceOnUse" color-interpolation-filters="sRGB">
<feFlood flood-opacity="0" result="BackgroundImageFix"/>
<feGaussianBlur in="BackgroundImageFix" stdDeviation="47.35"/>
<feComposite in2="SourceAlpha" operator="in" result="effect1_backgroundBlur_1782_5020"/>
<feBlend mode="normal" in="SourceGraphic" in2="effect1_backgroundBlur_1782_5020" result="shape"/>
</filter>
<filter id="filter2_b_1782_5020" x="125.3" y="140.3" width="247.013" height="247.345" filterUnits="userSpaceOnUse" color-interpolation-filters="sRGB">
<feFlood flood-opacity="0" result="BackgroundImageFix"/>
<feGaussianBlur in="BackgroundImageFix" stdDeviation="47.35"/>
<feComposite in2="SourceAlpha" operator="in" result="effect1_backgroundBlur_1782_5020"/>
<feBlend mode="normal" in="SourceGraphic" in2="effect1_backgroundBlur_1782_5020" result="shape"/>
</filter>
<filter id="filter3_b_1782_5020" x="208.3" y="138.3" width="247.013" height="247.345" filterUnits="userSpaceOnUse" color-interpolation-filters="sRGB">
<feFlood flood-opacity="0" result="BackgroundImageFix"/>
<feGaussianBlur in="BackgroundImageFix" stdDeviation="47.35"/>
<feComposite in2="SourceAlpha" operator="in" result="effect1_backgroundBlur_1782_5020"/>
<feBlend mode="normal" in="SourceGraphic" in2="effect1_backgroundBlur_1782_5020" result="shape"/>
</filter>
<filter id="filter4_b_1782_5020" x="126.577" y="53.4523" width="247.013" height="247.345" filterUnits="userSpaceOnUse" color-interpolation-filters="sRGB">
<feFlood flood-opacity="0" result="BackgroundImageFix"/>
<feGaussianBlur in="BackgroundImageFix" stdDeviation="47.35"/>
<feComposite in2="SourceAlpha" operator="in" result="effect1_backgroundBlur_1782_5020"/>
<feBlend mode="normal" in="SourceGraphic" in2="effect1_backgroundBlur_1782_5020" result="shape"/>
</filter>
<filter id="filter5_b_1782_5020" x="209.3" y="300.3" width="247.013" height="247.345" filterUnits="userSpaceOnUse" color-interpolation-filters="sRGB">
<feFlood flood-opacity="0" result="BackgroundImageFix"/>
<feGaussianBlur in="BackgroundImageFix" stdDeviation="47.35"/>
<feComposite in2="SourceAlpha" operator="in" result="effect1_backgroundBlur_1782_5020"/>
<feBlend mode="normal" in="SourceGraphic" in2="effect1_backgroundBlur_1782_5020" result="shape"/>
</filter>
<clipPath id="clip0_1782_5020">
<rect x="83" y="105" width="364" height="408" rx="35" fill="white"/>
</clipPath>
</defs>
</svg>
