<svg width="604" height="627" viewBox="0 0 604 627" fill="none" xmlns="http://www.w3.org/2000/svg">
<g filter="url(#filter0_d_1789_5009)">
<g clip-path="url(#clip0_1789_5009)">
<g opacity="0.09">
<line x1="83" y1="381.905" x2="1594.58" y2="381.905" stroke="#222020" stroke-width="1.2607"/>
<line x1="83" y1="220.534" x2="1594.58" y2="220.534" stroke="#222020" stroke-width="1.2607"/>
<line x1="83" y1="301.221" x2="1594.58" y2="301.221" stroke="#222020" stroke-width="1.2607"/>
<line x1="83" y1="462.588" x2="1594.58" y2="462.588" stroke="#222020" stroke-width="1.2607"/>
<line x1="83" y1="139.85" x2="1594.58" y2="139.85" stroke="#222020" stroke-width="1.2607"/>
<line x1="130.275" y1="30.8008" x2="130.275" y2="1198.21" stroke="#222020" stroke-width="1.2607"/>
<line x1="291.646" y1="30.8008" x2="291.646" y2="1198.21" stroke="#222020" stroke-width="1.2607"/>
<line x1="210.962" y1="30.8008" x2="210.962" y2="1198.21" stroke="#222020" stroke-width="1.2607"/>
<line x1="372.332" y1="30.8008" x2="372.331" y2="1198.21" stroke="#222020" stroke-width="1.2607"/>
</g>
<g opacity="0.5">
<rect x="210" y="140" width="81.3723" height="80.2262" fill="#6BBF47" fill-opacity="0.2"/>
<rect x="104" y="207" width="81.3723" height="80.2262" fill="#6BBF47" fill-opacity="0.2"/>
<rect x="291" y="220" width="81.3723" height="82.5184" fill="#6BBF47" fill-opacity="0.2"/>
<rect x="291.934" y="381.156" width="80.2262" height="81.3723" fill="#6BBF47" fill-opacity="0.2"/>
<path d="M210 381H291.372V463.518H210V381Z" fill="#6BBF47" fill-opacity="0.2"/>
</g>
<g filter="url(#filter1_b_1789_5009)">
<rect x="100" y="205" width="87.6214" height="90.6559" rx="12" fill="#4EC531"/>
</g>
<path d="M143.847 278C143.097 278 142.353 277.803 141.695 277.425L134.845 273.369C133.821 272.797 134.321 272.594 134.658 272.478C136.022 272 136.299 271.892 137.755 271.065C137.909 270.978 138.109 271.009 138.266 271.101L143.528 274.224C143.718 274.327 143.988 274.327 144.164 274.224L164.685 262.379C164.875 262.272 164.998 262.051 164.998 261.825V238.145C164.998 237.909 164.875 237.698 164.681 237.58L144.168 225.746C143.978 225.633 143.727 225.633 143.537 225.746L123.029 237.58C122.83 237.693 122.703 237.914 122.703 238.14V261.819C122.703 262.045 122.827 262.261 123.022 262.369L128.641 265.615C131.692 267.141 133.557 265.343 133.557 263.535V240.164C133.557 239.83 133.819 239.573 134.153 239.573H136.752C137.075 239.573 137.342 239.83 137.342 240.164V263.545C137.342 267.613 135.124 269.951 131.266 269.951C130.079 269.951 129.145 269.951 126.535 268.666L121.152 265.564C119.822 264.794 119 263.355 119 261.819V238.14C119 236.599 119.822 235.161 121.152 234.401L141.693 222.551C142.993 221.816 144.718 221.816 146.008 222.551L166.523 234.406C167.848 235.171 168.675 236.604 168.675 238.145V261.825C168.675 263.36 167.848 264.794 166.523 265.564L146.008 277.414C145.35 277.794 144.605 277.989 143.845 277.989" fill="black"/>
<path d="M150.021 261.151C141.043 261.151 139.16 257.03 139.16 253.573C139.16 253.244 139.425 252.982 139.754 252.982H142.405C142.698 252.982 142.944 253.195 142.99 253.484C143.391 256.185 144.583 257.547 150.012 257.547C154.337 257.547 156.176 256.57 156.176 254.277C156.176 252.957 155.652 251.976 148.933 251.318C143.314 250.764 139.842 249.526 139.842 245.031C139.842 240.891 143.335 238.426 149.185 238.426C155.755 238.426 159.011 240.706 159.422 245.607C159.438 245.776 159.376 245.94 159.263 246.064C159.15 246.182 158.991 246.254 158.826 246.254H156.16C155.883 246.254 155.642 246.059 155.585 245.792C154.943 242.951 153.392 242.042 149.175 242.042C144.454 242.042 143.905 243.686 143.905 244.918C143.905 246.413 144.552 246.85 150.921 247.692C157.229 248.529 160.223 249.711 160.223 254.143C160.223 258.612 156.494 261.175 149.992 261.175L150.021 261.151Z" fill="black"/>
<g filter="url(#filter2_b_1789_5009)">
<rect x="221.277" y="148.152" width="57.6127" height="57.9467" rx="12" fill="#26431F"/>
</g>
<g opacity="0.77">
<path d="M250.919 183.377C250.919 182.774 250.419 182.274 249.816 182.274C248.109 182.274 246.402 182.141 244.71 181.921C244.284 178.537 244.284 175.109 244.71 171.71C248.094 171.284 251.522 171.284 254.921 171.71C255.141 173.402 255.274 175.094 255.274 176.816C255.274 177.419 255.774 177.919 256.377 177.919C256.98 177.919 257.481 177.419 257.481 176.816C257.481 175.227 257.363 173.638 257.186 172.064C259.055 172.402 260.909 172.858 262.703 173.461C262.806 173.491 262.895 173.505 262.998 173.505C263.262 174.565 263.424 175.683 263.424 176.83C263.424 177.433 263.925 177.934 264.528 177.934C265.131 177.934 265.631 177.433 265.631 176.83C265.631 168.091 258.54 161 249.816 161C241.091 161 234 168.091 234 176.816C234 185.54 241.091 192.631 249.816 192.631C250.419 192.631 250.919 192.131 250.919 191.528C250.919 190.924 250.419 190.424 249.816 190.424C248.653 190.424 247.55 190.262 246.476 189.998C246.476 189.895 246.476 189.806 246.446 189.718C245.843 187.909 245.402 186.069 245.064 184.201C246.638 184.378 248.227 184.495 249.816 184.495C250.419 184.495 250.919 183.995 250.919 183.392V183.377ZM242.445 181.582C240.576 181.244 238.737 180.788 236.913 180.185C236.825 180.155 236.722 180.17 236.633 180.155C236.369 179.081 236.207 177.963 236.207 176.816C236.207 175.668 236.369 174.55 236.633 173.491C236.736 173.491 236.825 173.491 236.928 173.461C238.737 172.858 240.591 172.417 242.459 172.064C242.106 175.227 242.106 178.419 242.459 181.582H242.445ZM262.085 170.975C260.379 170.46 258.643 170.033 256.892 169.754C256.598 168.003 256.171 166.267 255.656 164.546C258.466 165.884 260.747 168.165 262.085 170.975ZM253.141 163.633C253.141 163.722 253.141 163.825 253.17 163.913C253.773 165.723 254.229 167.576 254.568 169.445C251.404 169.092 248.212 169.092 245.049 169.445C245.387 167.576 245.843 165.723 246.446 163.913C246.476 163.825 246.461 163.722 246.476 163.633C247.55 163.369 248.668 163.207 249.816 163.207C250.963 163.207 252.081 163.369 253.141 163.633ZM243.754 164.649C243.754 164.649 243.842 164.678 243.887 164.678C243.401 166.341 243.033 168.032 242.754 169.739C240.988 170.033 239.252 170.46 237.531 170.975C238.84 168.238 241.032 166.002 243.754 164.649ZM243.901 188.953C243.901 188.953 243.813 188.982 243.769 188.982C241.121 187.658 238.973 185.51 237.649 182.862C237.649 182.818 237.678 182.774 237.678 182.73C239.355 183.215 241.047 183.583 242.768 183.877C243.048 185.584 243.416 187.291 243.901 188.953Z" fill="#41932C"/>
<path d="M259.703 188.574L257.834 190.457C257.216 191.075 256.157 191.075 255.539 190.457C255.23 190.148 255.068 189.751 255.068 189.309C255.068 188.868 255.23 188.471 255.539 188.162L257.422 186.293C257.82 185.896 257.82 185.234 257.422 184.837C257.025 184.44 256.363 184.44 255.966 184.837L254.097 186.72C253.406 187.412 253.023 188.338 253.023 189.324C253.023 190.31 253.406 191.237 254.097 191.928C254.789 192.62 255.716 193.002 256.701 193.002C257.687 193.002 258.614 192.62 259.306 191.928L261.174 190.06C261.571 189.663 261.571 189.001 261.174 188.603C260.777 188.206 260.115 188.206 259.717 188.603L259.703 188.574Z" fill="#41932C"/>
<path d="M264.926 181.07C263.484 179.628 261.16 179.628 259.718 181.07L257.835 182.938C257.438 183.335 257.438 183.997 257.835 184.395C258.232 184.792 258.909 184.777 259.292 184.395L261.16 182.526C261.763 181.908 262.837 181.908 263.455 182.526C263.764 182.835 263.926 183.232 263.926 183.674C263.926 184.115 263.764 184.512 263.455 184.821L261.572 186.69C261.175 187.087 261.175 187.749 261.572 188.146C261.763 188.337 262.028 188.44 262.308 188.44C262.587 188.44 262.837 188.337 263.043 188.131L264.912 186.248C265.603 185.557 265.986 184.63 265.986 183.644C265.986 182.659 265.603 181.732 264.912 181.04L264.926 181.07Z" fill="#41932C"/>
<path d="M256.6 188.354C256.6 188.633 256.703 188.883 256.909 189.089C257.1 189.281 257.365 189.398 257.644 189.398C257.924 189.398 258.174 189.295 258.38 189.089L262.131 185.338C262.323 185.147 262.44 184.882 262.44 184.602C262.44 184.323 262.337 184.073 262.131 183.867C261.734 183.469 261.057 183.484 260.675 183.867L256.923 187.618C256.732 187.81 256.614 188.074 256.614 188.354H256.6Z" fill="#41932C"/>
</g>
<g filter="url(#filter3_b_1789_5009)">
<rect x="303" y="232" width="57.6127" height="57.9467" rx="12" fill="#26431F"/>
</g>
<g opacity="0.48">
<path d="M344.102 245H319.57C319.253 245 319 245.253 319 245.57V274.43C319 274.742 319.253 275 319.57 275H344.107C344.419 275 344.677 274.747 344.677 274.43V245.57C344.677 245.258 344.424 245 344.107 245H344.102ZM343.536 246.135V273.855H320.135V246.135H343.531H343.536Z" fill="#7EFF5B"/>
<path d="M332.793 270.953H337.334C337.647 270.953 337.904 270.7 337.904 270.383C337.904 270.065 337.652 269.812 337.334 269.812H332.793C332.48 269.812 332.223 270.065 332.223 270.383C332.223 270.7 332.476 270.953 332.793 270.953Z" fill="#7EFF5B"/>
<path d="M332.793 267.34H340.587C340.899 267.34 341.157 267.087 341.157 266.769C341.157 266.452 340.904 266.199 340.587 266.199H332.793C332.48 266.199 332.223 266.452 332.223 266.769C332.223 267.087 332.476 267.34 332.793 267.34Z" fill="#7EFF5B"/>
<path d="M332.793 262.379H337.334C337.647 262.379 337.904 262.126 337.904 261.808C337.904 261.491 337.652 261.238 337.334 261.238H332.793C332.48 261.238 332.223 261.491 332.223 261.808C332.223 262.126 332.476 262.379 332.793 262.379Z" fill="#7EFF5B"/>
<path d="M332.793 258.757H340.587C340.899 258.757 341.157 258.505 341.157 258.187C341.157 257.87 340.904 257.617 340.587 257.617H332.793C332.48 257.617 332.223 257.87 332.223 258.187C332.223 258.505 332.476 258.757 332.793 258.757Z" fill="#7EFF5B"/>
<path d="M328.182 267.091C328.182 265.737 327.097 264.637 325.758 264.637C324.419 264.637 323.334 265.737 323.334 267.091C323.334 267.468 323.418 267.839 323.582 268.177C322.902 268.796 322.516 269.674 322.516 270.606V271.945C322.516 272.257 322.768 272.515 323.086 272.515C323.403 272.515 323.656 272.262 323.656 271.945V270.606C323.656 270.016 323.894 269.461 324.305 269.059C324.722 269.376 325.233 269.55 325.753 269.55C326.274 269.55 326.784 269.376 327.201 269.059C327.617 269.461 327.85 270.021 327.85 270.606V271.945C327.85 272.257 328.103 272.515 328.42 272.515C328.738 272.515 328.991 272.262 328.991 271.945V270.606C328.991 269.674 328.604 268.796 327.925 268.177C328.088 267.839 328.173 267.468 328.173 267.091H328.182ZM327.047 267.091C327.047 267.815 326.472 268.405 325.763 268.405C325.054 268.405 324.479 267.815 324.479 267.091C324.479 266.367 325.054 265.777 325.763 265.777C326.472 265.777 327.047 266.367 327.047 267.091Z" fill="#7EFF5B"/>
<path d="M322.525 263.37C322.525 263.683 322.778 263.941 323.096 263.941C323.413 263.941 323.666 263.688 323.666 263.37V262.032C323.666 261.442 323.904 260.886 324.315 260.485C324.732 260.802 325.242 260.976 325.763 260.976C326.283 260.976 326.794 260.802 327.211 260.485C327.627 260.886 327.86 261.447 327.86 262.032V263.37C327.86 263.683 328.113 263.941 328.43 263.941C328.748 263.941 329 263.688 329 263.37V262.032C329 261.1 328.614 260.222 327.934 259.602C328.098 259.265 328.182 258.893 328.182 258.517C328.182 257.163 327.097 256.062 325.763 256.062C324.429 256.062 323.343 257.163 323.343 258.517C323.343 258.893 323.428 259.265 323.591 259.602C322.912 260.222 322.525 261.1 322.525 262.032V263.37ZM324.479 258.517C324.479 257.793 325.054 257.203 325.763 257.203C326.472 257.203 327.047 257.793 327.047 258.517C327.047 259.24 326.472 259.83 325.763 259.83C325.054 259.83 324.479 259.24 324.479 258.517Z" fill="#7EFF5B"/>
<path d="M323.086 255.351C323.398 255.351 323.656 255.098 323.656 254.781V253.442C323.656 252.852 323.894 252.297 324.31 251.895C324.727 252.212 325.237 252.386 325.763 252.386C326.288 252.386 326.794 252.212 327.216 251.895C327.632 252.297 327.87 252.857 327.87 253.442V254.781C327.87 255.093 328.123 255.351 328.44 255.351C328.757 255.351 329.01 255.098 329.01 254.781V253.442C329.01 252.51 328.624 251.632 327.944 251.013C328.108 250.675 328.192 250.304 328.192 249.927C328.192 248.573 327.101 247.473 325.768 247.473C324.434 247.473 323.343 248.573 323.343 249.927C323.343 250.304 323.428 250.675 323.591 251.013C322.912 251.632 322.525 252.51 322.525 253.442V254.781C322.525 255.093 322.778 255.351 323.096 255.351H323.086ZM324.474 249.932C324.474 249.208 325.054 248.618 325.763 248.618C326.472 248.618 327.052 249.208 327.052 249.932C327.052 250.656 326.472 251.246 325.763 251.246C325.054 251.246 324.474 250.656 324.474 249.932Z" fill="#7EFF5B"/>
<path d="M332.793 253.797H337.334C337.647 253.797 337.904 253.544 337.904 253.226C337.904 252.909 337.652 252.656 337.334 252.656H332.793C332.48 252.656 332.223 252.909 332.223 253.226C332.223 253.544 332.476 253.797 332.793 253.797Z" fill="#7EFF5B"/>
<path d="M332.793 250.175H340.587C340.899 250.175 341.157 249.923 341.157 249.605C341.157 249.288 340.904 249.035 340.587 249.035H332.793C332.48 249.035 332.223 249.288 332.223 249.605C332.223 249.923 332.476 250.175 332.793 250.175Z" fill="#7EFF5B"/>
</g>
<g filter="url(#filter4_b_1789_5009)">
<rect x="222" y="394" width="57.6127" height="57.9467" rx="12" fill="#26431F"/>
</g>
<path fill-rule="evenodd" clip-rule="evenodd" d="M264.537 409.462C263.599 408.526 262.328 408 261.003 408H240.997C239.672 408 238.401 408.526 237.464 409.464C236.526 410.401 236 411.672 236 412.997V433.003C236 434.328 236.526 435.599 237.464 436.536C238.401 437.474 239.672 438 240.997 438H261.003C262.328 438 263.599 437.474 264.536 436.536C265.474 435.599 266 434.328 266 433.003V412.997C266 411.672 265.474 410.401 264.537 409.462ZM238.878 410.878C239.44 410.316 240.202 409.999 240.997 409.997H261.003C261.798 409.999 262.56 410.316 263.122 410.878C263.684 411.44 264.001 412.202 264.003 412.997V415.997H237.997V412.997C237.999 412.202 238.316 411.44 238.878 410.878ZM263.122 435.122C262.56 435.684 261.798 436.001 261.003 436.003H240.997C240.202 436.001 239.44 435.684 238.878 435.122C238.316 434.56 237.999 433.798 237.997 433.003V418.003H264.003V433.003C264.001 433.798 263.684 434.56 263.122 435.122Z" fill="#41932C"/>
<path fill-rule="evenodd" clip-rule="evenodd" d="M244.999 423H243.996C243.201 423.002 242.44 423.319 241.878 423.881C241.315 424.443 240.999 425.205 240.996 426V430.997C240.996 431.263 241.102 431.518 241.29 431.706C241.478 431.894 241.733 432 241.999 432C242.265 432 242.52 431.894 242.709 431.706C242.897 431.518 243.002 431.263 243.002 430.997V429.788H246.002V430.997C245.989 431.136 246.005 431.277 246.049 431.409C246.093 431.542 246.164 431.664 246.258 431.768C246.352 431.872 246.467 431.954 246.595 432.011C246.723 432.068 246.861 432.097 247.001 432.097C247.141 432.097 247.279 432.068 247.407 432.011C247.535 431.954 247.65 431.872 247.744 431.768C247.838 431.664 247.909 431.542 247.953 431.409C247.997 431.277 248.013 431.136 247.999 430.997V426C247.997 425.205 247.68 424.443 247.118 423.881C246.556 423.319 245.794 423.002 244.999 423ZM243.002 427.781V426C242.999 425.869 243.023 425.739 243.073 425.618C243.123 425.497 243.198 425.387 243.293 425.297C243.479 425.108 243.731 425 243.996 424.997H244.999C245.264 425.002 245.516 425.109 245.703 425.296C245.89 425.483 245.998 425.735 246.002 426V427.781H243.002Z" fill="#41932C"/>
<path fill-rule="evenodd" clip-rule="evenodd" d="M254.142 423H251.001C250.735 423 250.48 423.106 250.292 423.294C250.104 423.482 249.998 423.737 249.998 424.003V430.997C249.998 431.263 250.104 431.518 250.292 431.706C250.48 431.894 250.735 432 251.001 432C251.267 432 251.522 431.894 251.71 431.706C251.899 431.518 252.004 431.263 252.004 430.997V429.788H254.142C254.939 429.785 255.704 429.468 256.27 428.906C256.552 428.624 256.775 428.287 256.925 427.917C257.075 427.546 257.148 427.149 257.142 426.75V426C257.143 425.607 257.067 425.217 256.918 424.854C256.768 424.49 256.548 424.159 256.27 423.881C255.704 423.319 254.939 423.003 254.142 423ZM255.145 426.75C255.145 426.881 255.119 427.01 255.07 427.13C255.02 427.251 254.947 427.361 254.854 427.453C254.664 427.64 254.408 427.744 254.142 427.744H252.004V424.931H254.142C254.409 424.934 254.665 425.042 254.854 425.231C254.949 425.322 255.024 425.431 255.074 425.552C255.124 425.673 255.148 425.803 255.145 425.934V426.75Z" fill="#41932C"/>
<path fill-rule="evenodd" clip-rule="evenodd" d="M259.999 423C259.733 423 259.478 423.106 259.29 423.294C259.102 423.482 258.996 423.737 258.996 424.003V430.997C258.996 431.263 259.102 431.518 259.29 431.706C259.478 431.894 259.733 432 259.999 432C260.265 432 260.52 431.894 260.709 431.706C260.897 431.518 261.002 431.263 261.002 430.997V424.003C261.002 423.737 260.897 423.482 260.709 423.294C260.52 423.106 260.265 423 259.999 423Z" fill="#41932C"/>
<path fill-rule="evenodd" clip-rule="evenodd" d="M241.999 413.998C242.198 413.998 242.392 413.94 242.557 413.829C242.721 413.719 242.85 413.562 242.926 413.379C243.002 413.196 243.022 412.994 242.983 412.8C242.944 412.605 242.849 412.426 242.709 412.286C242.568 412.146 242.39 412.05 242.195 412.011C242 411.973 241.799 411.993 241.615 412.069C241.432 412.144 241.275 412.273 241.165 412.438C241.055 412.603 240.996 412.797 240.996 412.995C240.996 413.261 241.102 413.517 241.29 413.705C241.478 413.893 241.733 413.998 241.999 413.998Z" fill="#41932C"/>
<path fill-rule="evenodd" clip-rule="evenodd" d="M246.003 413.998C246.202 413.998 246.396 413.94 246.56 413.829C246.725 413.719 246.854 413.562 246.93 413.379C247.006 413.196 247.026 412.994 246.987 412.8C246.948 412.605 246.853 412.426 246.712 412.286C246.572 412.146 246.393 412.05 246.199 412.011C246.004 411.973 245.803 411.993 245.619 412.069C245.436 412.144 245.279 412.273 245.169 412.438C245.059 412.603 245 412.797 245 412.995C244.999 413.127 245.024 413.258 245.074 413.381C245.124 413.503 245.198 413.614 245.291 413.707C245.384 413.801 245.496 413.875 245.618 413.925C245.74 413.975 245.871 414 246.003 413.998Z" fill="#41932C"/>
<g filter="url(#filter5_b_1789_5009)">
<rect x="304" y="394" width="57" height="57" rx="12" fill="#26431F"/>
</g>
<path d="M332.173 411.98C329.599 411.98 327.504 414.075 327.504 416.65C327.504 419.224 329.599 421.319 332.173 421.319C334.748 421.319 336.842 419.224 336.842 416.65C336.842 414.075 334.748 411.98 332.173 411.98ZM332.173 419.671C330.507 419.671 329.152 418.316 329.152 416.65C329.152 414.984 330.507 413.628 332.173 413.628C333.839 413.628 335.194 414.984 335.194 416.65C335.194 418.316 333.839 419.671 332.173 419.671Z" fill="#41932C"/>
<path d="M342.06 429.119C341.433 429.119 340.86 429.354 340.424 429.739L337.94 428.359V425.627C338.172 425.644 338.408 425.562 338.581 425.389L340.912 423.058C341.179 422.791 341.23 422.376 341.036 422.052L340.251 420.744C340.459 420.334 340.635 419.907 340.779 419.467L342.26 419.096C342.626 419.005 342.884 418.675 342.884 418.297V415.001C342.884 414.623 342.626 414.293 342.26 414.202L340.779 413.832C340.635 413.391 340.459 412.964 340.251 412.554L341.036 411.246C341.23 410.922 341.179 410.507 340.912 410.24L338.581 407.91C338.314 407.642 337.899 407.591 337.575 407.786L336.267 408.57C335.857 408.362 335.43 408.186 334.99 408.042L334.619 406.562C334.528 406.195 334.198 405.938 333.82 405.938H330.524C330.146 405.938 329.816 406.195 329.725 406.562L329.355 408.042C328.914 408.186 328.487 408.362 328.077 408.57L326.77 407.786C326.445 407.591 326.03 407.642 325.763 407.91L323.433 410.24C323.165 410.508 323.114 410.922 323.309 411.247L324.093 412.554C323.886 412.964 323.709 413.391 323.565 413.832L322.085 414.202C321.718 414.294 321.46 414.623 321.46 415.001V418.297C321.46 418.675 321.718 419.005 322.085 419.097L323.565 419.467C323.709 419.907 323.885 420.334 324.093 420.744L323.309 422.052C323.114 422.376 323.165 422.791 323.432 423.058L325.763 425.389C325.936 425.562 326.172 425.644 326.404 425.628V428.359L323.92 429.739C323.484 429.354 322.911 429.119 322.284 429.119C320.921 429.119 319.812 430.228 319.812 431.591C319.812 432.954 320.921 434.062 322.284 434.062C323.647 434.062 324.756 432.954 324.756 431.591C324.756 431.45 324.744 431.313 324.721 431.179L327.628 429.564C327.89 429.419 328.052 429.143 328.052 428.844V424.743L328.077 424.728C328.487 424.936 328.914 425.112 329.355 425.256L329.725 426.737C329.816 427.104 330.146 427.361 330.524 427.361H331.348V429.26C330.389 429.601 329.7 430.516 329.7 431.591C329.7 432.954 330.809 434.062 332.172 434.062C333.535 434.062 334.644 432.954 334.644 431.591C334.644 430.516 333.955 429.601 332.996 429.26V427.361H333.82C334.198 427.361 334.528 427.104 334.619 426.737L334.99 425.256C335.43 425.112 335.857 424.936 336.267 424.728L336.292 424.743V428.844C336.292 429.143 336.454 429.419 336.716 429.564L339.623 431.179C339.6 431.313 339.588 431.45 339.588 431.591C339.588 432.954 340.697 434.062 342.06 434.062C343.423 434.062 344.532 432.954 344.532 431.591C344.532 430.228 343.423 429.119 342.06 429.119ZM322.284 432.415C321.83 432.415 321.46 432.045 321.46 431.591C321.46 431.136 321.83 430.767 322.284 430.767C322.739 430.767 323.108 431.136 323.108 431.591C323.108 432.045 322.739 432.415 322.284 432.415ZM332.172 432.415C331.718 432.415 331.348 432.045 331.348 431.591C331.348 431.136 331.718 430.767 332.172 430.767C332.626 430.767 332.996 431.136 332.996 431.591C332.996 432.045 332.626 432.415 332.172 432.415ZM336.712 423.073C336.455 422.919 336.135 422.917 335.876 423.067L335.876 423.067C335.32 423.388 334.72 423.636 334.091 423.804H334.091C333.802 423.882 333.577 424.11 333.505 424.4L333.177 425.713H331.168L330.839 424.4C330.767 424.11 330.542 423.882 330.253 423.804C329.624 423.636 329.024 423.388 328.469 423.067L328.469 423.067C328.209 422.917 327.889 422.919 327.632 423.073L326.474 423.769L325.053 422.348L325.748 421.189C325.902 420.932 325.905 420.612 325.755 420.353C325.434 419.798 325.185 419.197 325.017 418.568C324.94 418.279 324.712 418.054 324.421 417.982L323.108 417.654V415.645L324.421 415.316C324.711 415.244 324.94 415.019 325.017 414.73V414.73C325.185 414.101 325.433 413.501 325.755 412.946C325.905 412.686 325.902 412.366 325.748 412.109L325.053 410.951L326.473 409.53L327.632 410.225C327.889 410.379 328.209 410.382 328.469 410.232L328.469 410.232C329.024 409.911 329.624 409.662 330.253 409.494H330.253C330.542 409.417 330.767 409.188 330.839 408.898L331.168 407.585H333.177L333.505 408.898C333.577 409.188 333.802 409.417 334.091 409.494H334.091C334.72 409.662 335.321 409.911 335.875 410.232L335.876 410.232C336.135 410.382 336.455 410.379 336.712 410.225L337.871 409.53L339.291 410.95L338.596 412.109C338.442 412.366 338.44 412.686 338.59 412.946C338.911 413.501 339.159 414.101 339.327 414.73C339.405 415.019 339.633 415.244 339.923 415.316L341.236 415.645V417.654L339.923 417.982C339.633 418.054 339.405 418.279 339.327 418.568V418.568C339.159 419.197 338.911 419.798 338.59 420.353C338.44 420.612 338.442 420.932 338.596 421.189L339.292 422.348L337.871 423.769L336.712 423.073ZM342.06 432.415C341.605 432.415 341.236 432.045 341.236 431.591C341.236 431.136 341.605 430.767 342.06 430.767C342.514 430.767 342.884 431.136 342.884 431.591C342.884 432.045 342.514 432.415 342.06 432.415Z" fill="#41932C"/>
</g>
<rect x="83.5" y="105.5" width="363" height="407" rx="34.5" stroke="#3E863D" shape-rendering="crispEdges"/>
</g>
<defs>
<filter id="filter0_d_1789_5009" x="0.699997" y="0.699997" width="602.6" height="646.6" filterUnits="userSpaceOnUse" color-interpolation-filters="sRGB">
<feFlood flood-opacity="0" result="BackgroundImageFix"/>
<feColorMatrix in="SourceAlpha" type="matrix" values="0 0 0 0 0 0 0 0 0 0 0 0 0 0 0 0 0 0 127 0" result="hardAlpha"/>
<feOffset dx="37" dy="15"/>
<feGaussianBlur stdDeviation="59.65"/>
<feComposite in2="hardAlpha" operator="out"/>
<feColorMatrix type="matrix" values="0 0 0 0 0 0 0 0 0 0.619608 0 0 0 0 0.286275 0 0 0 0.78 0"/>
<feBlend mode="normal" in2="BackgroundImageFix" result="effect1_dropShadow_1789_5009"/>
<feBlend mode="normal" in="SourceGraphic" in2="effect1_dropShadow_1789_5009" result="shape"/>
</filter>
<filter id="filter1_b_1789_5009" x="5.3" y="110.3" width="277.021" height="280.056" filterUnits="userSpaceOnUse" color-interpolation-filters="sRGB">
<feFlood flood-opacity="0" result="BackgroundImageFix"/>
<feGaussianBlur in="BackgroundImageFix" stdDeviation="47.35"/>
<feComposite in2="SourceAlpha" operator="in" result="effect1_backgroundBlur_1789_5009"/>
<feBlend mode="normal" in="SourceGraphic" in2="effect1_backgroundBlur_1789_5009" result="shape"/>
</filter>
<filter id="filter2_b_1789_5009" x="126.577" y="53.4523" width="247.013" height="247.345" filterUnits="userSpaceOnUse" color-interpolation-filters="sRGB">
<feFlood flood-opacity="0" result="BackgroundImageFix"/>
<feGaussianBlur in="BackgroundImageFix" stdDeviation="47.35"/>
<feComposite in2="SourceAlpha" operator="in" result="effect1_backgroundBlur_1789_5009"/>
<feBlend mode="normal" in="SourceGraphic" in2="effect1_backgroundBlur_1789_5009" result="shape"/>
</filter>
<filter id="filter3_b_1789_5009" x="208.3" y="137.3" width="247.013" height="247.345" filterUnits="userSpaceOnUse" color-interpolation-filters="sRGB">
<feFlood flood-opacity="0" result="BackgroundImageFix"/>
<feGaussianBlur in="BackgroundImageFix" stdDeviation="47.35"/>
<feComposite in2="SourceAlpha" operator="in" result="effect1_backgroundBlur_1789_5009"/>
<feBlend mode="normal" in="SourceGraphic" in2="effect1_backgroundBlur_1789_5009" result="shape"/>
</filter>
<filter id="filter4_b_1789_5009" x="127.3" y="299.3" width="247.013" height="247.345" filterUnits="userSpaceOnUse" color-interpolation-filters="sRGB">
<feFlood flood-opacity="0" result="BackgroundImageFix"/>
<feGaussianBlur in="BackgroundImageFix" stdDeviation="47.35"/>
<feComposite in2="SourceAlpha" operator="in" result="effect1_backgroundBlur_1789_5009"/>
<feBlend mode="normal" in="SourceGraphic" in2="effect1_backgroundBlur_1789_5009" result="shape"/>
</filter>
<filter id="filter5_b_1789_5009" x="209.3" y="299.3" width="246.4" height="246.4" filterUnits="userSpaceOnUse" color-interpolation-filters="sRGB">
<feFlood flood-opacity="0" result="BackgroundImageFix"/>
<feGaussianBlur in="BackgroundImageFix" stdDeviation="47.35"/>
<feComposite in2="SourceAlpha" operator="in" result="effect1_backgroundBlur_1789_5009"/>
<feBlend mode="normal" in="SourceGraphic" in2="effect1_backgroundBlur_1789_5009" result="shape"/>
</filter>
<clipPath id="clip0_1789_5009">
<rect x="83" y="105" width="364" height="408" rx="35" fill="white"/>
</clipPath>
</defs>
</svg>
