<svg width="604" height="613" viewBox="0 0 604 613" fill="none" xmlns="http://www.w3.org/2000/svg">
<g filter="url(#filter0_d_1789_5177)">
<g clip-path="url(#clip0_1789_5177)">
<g opacity="0.09">
<line x1="83" y1="381.905" x2="1594.58" y2="381.905" stroke="#222020" stroke-width="1.2607"/>
<line x1="83" y1="220.534" x2="1594.58" y2="220.534" stroke="#222020" stroke-width="1.2607"/>
<line x1="83" y1="301.221" x2="1594.58" y2="301.221" stroke="#222020" stroke-width="1.2607"/>
<line x1="83" y1="462.588" x2="1594.58" y2="462.588" stroke="#222020" stroke-width="1.2607"/>
<line x1="83" y1="139.85" x2="1594.58" y2="139.85" stroke="#222020" stroke-width="1.2607"/>
<line x1="130.275" y1="30.8008" x2="130.275" y2="1198.21" stroke="#222020" stroke-width="1.2607"/>
<line x1="291.646" y1="30.8008" x2="291.646" y2="1198.21" stroke="#222020" stroke-width="1.2607"/>
<line x1="210.962" y1="30.8008" x2="210.962" y2="1198.21" stroke="#222020" stroke-width="1.2607"/>
<line x1="372.332" y1="30.8008" x2="372.331" y2="1198.21" stroke="#222020" stroke-width="1.2607"/>
</g>
<g opacity="0.5">
<rect x="210" y="140" width="81.3723" height="80.2262" fill="#FFD54A" fill-opacity="0.2"/>
<rect x="104" y="207" width="81.3723" height="80.2262" fill="#6BBF47" fill-opacity="0.2"/>
<rect x="291" y="140" width="81" height="80" fill="#FFD54A" fill-opacity="0.2"/>
<path d="M292 384H372.226V465.372H292V384Z" fill="#FFD54A" fill-opacity="0.2"/>
<path d="M210 301H291.372V383.518H210V301Z" fill="#FFD54A" fill-opacity="0.2"/>
<g opacity="0.08" filter="url(#filter1_b_1789_5177)">
<path d="M305 408C305 401.373 310.373 396 317 396H350C356.627 396 362 401.373 362 408V441C362 447.627 356.627 453 350 453H317C310.373 453 305 447.627 305 441V408Z" fill="#D0A30E"/>
</g>
</g>
<g filter="url(#filter2_b_1789_5177)">
<rect x="100" y="205" width="87.6214" height="90.6559" rx="12" fill="#FFD54A"/>
</g>
<g opacity="0.08">
<g opacity="0.94">
<g filter="url(#filter3_b_1789_5177)">
<rect x="221.277" y="151.152" width="57.6127" height="57.9467" rx="12" fill="#D0A30E"/>
</g>
</g>
</g>
<g opacity="0.08">
<g filter="url(#filter4_b_1789_5177)">
<path d="M303 166C303 159.373 308.373 154 315 154H348.613C355.24 154 360.613 159.373 360.613 166V199.947C360.613 206.574 355.24 211.947 348.613 211.947H315C308.373 211.947 303 206.574 303 199.947V166Z" fill="#D0A30E"/>
</g>
</g>
<g opacity="0.08">
<g filter="url(#filter5_b_1789_5177)">
<rect x="222" y="313" width="57.6127" height="57.9467" rx="12" fill="#D0A30E"/>
</g>
</g>
<path d="M143.782 218C128.04 218 129.023 224.827 129.023 224.827L129.04 231.899H144.062V234.023H123.073C123.073 234.023 113 232.88 113 248.764C113 264.648 121.792 264.085 121.792 264.085H127.04V256.714C127.04 256.714 126.757 247.922 135.691 247.922C144.626 247.922 150.591 247.922 150.591 247.922C150.591 247.922 158.962 248.057 158.962 239.831C158.962 231.606 158.962 226.231 158.962 226.231C158.962 226.231 160.233 218 143.782 218ZM135.498 222.756C136.993 222.756 138.201 223.964 138.201 225.458C138.201 226.953 136.993 228.161 135.498 228.161C134.004 228.161 132.796 226.953 132.796 225.458C132.796 223.964 134.004 222.756 135.498 222.756Z" fill="black"/>
<path d="M144.318 279.747C160.06 279.747 159.077 272.921 159.077 272.921L159.06 265.848H144.037V263.725H165.026C165.026 263.725 175.1 264.867 175.1 248.983C175.1 233.099 166.308 233.663 166.308 233.663H161.06V241.033C161.06 241.033 161.343 249.826 152.408 249.826C143.474 249.826 137.509 249.826 137.509 249.826C137.509 249.826 129.138 249.69 129.138 257.916C129.138 266.141 129.138 271.517 129.138 271.517C129.138 271.517 127.867 279.747 144.318 279.747ZM152.602 274.991C151.107 274.991 149.899 273.783 149.899 272.289C149.899 270.794 151.107 269.586 152.602 269.586C154.096 269.586 155.304 270.794 155.304 272.289C155.304 273.783 154.096 274.991 152.602 274.991Z" fill="black"/>
<path d="M257.777 164.875H243.832C242.842 164.875 242.013 165.581 241.823 166.516H241.371C239.788 166.516 238.5 167.804 238.5 169.387V188.254C238.5 189.837 239.788 191.125 241.371 191.125H255.727C257.309 191.125 258.598 189.837 258.598 188.254V187.67C259.321 187.352 259.828 186.632 259.828 185.793V166.926C259.828 165.795 258.908 164.875 257.777 164.875ZM243.422 166.926C243.422 166.7 243.606 166.516 243.832 166.516H257.777C258.004 166.516 258.188 166.7 258.188 166.926V185.793C258.188 186.019 258.004 186.203 257.777 186.203H243.832C243.606 186.203 243.422 186.019 243.422 185.793V166.926ZM255.727 189.484H241.371C240.693 189.484 240.141 188.932 240.141 188.254V169.387C240.141 168.708 240.693 168.156 241.371 168.156H241.781V185.793C241.781 186.924 242.701 187.844 243.832 187.844H256.957V188.254C256.957 188.932 256.405 189.484 255.727 189.484Z" fill="#FFD961" fill-opacity="0.57"/>
<path d="M245.883 173.898C246.093 173.898 246.302 173.818 246.463 173.658L249.164 170.957L251.455 173.248C251.775 173.568 252.295 173.568 252.615 173.248L254.496 171.367L254.736 171.607C254.893 171.763 255.102 171.847 255.316 171.847C255.395 171.847 255.476 171.836 255.554 171.812C255.843 171.725 256.061 171.485 256.121 171.188L256.531 169.137C256.585 168.868 256.5 168.59 256.306 168.396C256.112 168.202 255.835 168.119 255.565 168.172L253.514 168.582C253.218 168.642 252.978 168.859 252.891 169.149C252.803 169.438 252.882 169.752 253.096 169.966L253.336 170.207L252.035 171.507L249.744 169.217C249.424 168.896 248.904 168.896 248.584 169.217L245.303 172.498C244.982 172.818 244.982 173.338 245.303 173.658C245.463 173.818 245.673 173.898 245.883 173.898Z" fill="#FFD961" fill-opacity="0.57"/>
<path d="M245.883 177.18H255.727C256.179 177.18 256.547 176.812 256.547 176.359C256.547 175.907 256.179 175.539 255.727 175.539H245.883C245.43 175.539 245.062 175.907 245.062 176.359C245.062 176.812 245.43 177.18 245.883 177.18Z" fill="#FFD961" fill-opacity="0.57"/>
<path d="M255.727 179.641H246.293C245.84 179.641 245.473 180.008 245.473 180.461C245.473 180.914 245.84 181.281 246.293 181.281H255.727C256.179 181.281 256.547 180.914 256.547 180.461C256.547 180.008 256.179 179.641 255.727 179.641Z" fill="#FFD961" fill-opacity="0.57"/>
<path d="M251.215 182.922H246.293C245.84 182.922 245.473 183.289 245.473 183.742C245.473 184.195 245.84 184.562 246.293 184.562H251.215C251.668 184.562 252.035 184.195 252.035 183.742C252.035 183.289 251.668 182.922 251.215 182.922Z" fill="#FFD961" fill-opacity="0.57"/>
<g opacity="0.57">
<path d="M315.458 195.83C314.707 195.83 313.942 195.519 313.463 194.91V198.201H311.959V190.078H313.319L313.373 190.968C313.839 190.282 314.668 189.919 315.459 189.92C316.974 189.92 318.092 191.189 318.092 192.874C318.092 194.559 316.974 195.831 315.458 195.83L315.458 195.83ZM314.992 191.036C314.115 191.036 313.398 191.723 313.398 192.876C313.398 194.029 314.11 194.716 314.992 194.716C315.873 194.716 316.584 194.029 316.584 192.876C316.584 191.723 315.873 191.036 314.992 191.036V191.036ZM323.759 195.676L323.707 194.782C323.24 195.468 322.411 195.831 321.621 195.831C320.105 195.831 318.988 194.561 318.988 192.877C318.988 191.193 320.103 189.922 321.621 189.923C322.411 189.923 323.24 190.289 323.707 190.972L323.759 190.079H325.119V195.676L323.759 195.676ZM322.088 191.036C321.21 191.036 320.494 191.723 320.494 192.876C320.494 194.03 321.206 194.716 322.088 194.716C322.969 194.716 323.681 194.03 323.681 192.877C323.681 191.725 322.969 191.041 322.088 191.036V191.036ZM330.378 195.677V192.577C330.378 191.489 330.002 191.126 329.316 191.126C328.603 191.126 327.826 191.773 327.825 192.551V195.673H326.323V190.079H327.7L327.764 191.116C328.14 190.403 328.983 189.924 329.838 189.924C331.327 189.924 331.885 190.961 331.885 192.347V195.677H330.378ZM337.391 195.678L337.339 194.784C336.873 195.47 336.044 195.833 335.254 195.833C333.738 195.833 332.621 194.563 332.621 192.878C332.621 191.194 333.735 189.925 335.254 189.925C336.005 189.925 336.77 190.236 337.249 190.845V187.904H338.752V195.678H337.391ZM335.721 191.041C334.84 191.041 334.127 191.728 334.127 192.881C334.127 194.034 334.839 194.72 335.72 194.721C336.602 194.721 337.314 194.034 337.314 192.881C337.314 191.728 336.602 191.041 335.721 191.041ZM344.399 195.678L344.348 194.785C343.881 195.472 343.052 195.834 342.262 195.834C340.746 195.834 339.629 194.564 339.629 192.88C339.629 191.195 340.744 189.925 342.262 189.926C343.052 189.926 343.881 190.292 344.348 190.975L344.4 190.082H345.764V195.678H344.399ZM342.729 191.041C341.847 191.041 341.135 191.728 341.135 192.881C341.135 194.034 341.847 194.721 342.729 194.721C343.61 194.721 344.322 194.034 344.322 192.881C344.322 191.728 343.61 191.041 342.729 191.041ZM349.09 195.861C348.3 195.854 347.525 195.635 346.849 195.226L347.095 194.186C347.548 194.458 348.235 194.808 349.064 194.808C349.66 194.808 350.075 194.627 350.075 194.16C350.075 193.759 349.647 193.616 348.883 193.435C347.51 193.136 347.017 192.411 347.018 191.621C347.018 190.743 347.704 189.911 349.22 189.911C350.141 189.911 350.944 190.313 351.122 190.416L350.878 191.407C350.389 191.112 349.83 190.951 349.259 190.94C348.65 190.94 348.352 191.147 348.352 191.484C348.352 191.86 348.741 192.029 349.337 192.171C350.813 192.482 351.409 193.169 351.409 193.921C351.409 195.123 350.528 195.861 349.09 195.861V195.861ZM328.121 163.395H330.79V168.939H328.121V163.395ZM328.121 174.782H330.79V180.326H328.121V174.782Z" fill="#FFD961"/>
<path d="M328.121 170.559H330.791V173.174H328.121V170.559Z" fill="#FFD961"/>
<path d="M323.832 167.953H326.502V186.381H323.832V167.953ZM332.321 179.356H334.991V184.9H332.321V179.356ZM332.321 167.96H334.991V173.503H332.321V167.96Z" fill="#FFD961"/>
<path d="M332.322 175.121H334.992V177.736H332.322V175.121Z" fill="#FFD961"/>
<path d="M336.521 161.953H339.192V180.38H336.521V161.953Z" fill="#FFD961"/>
</g>
<g opacity="0.57" clip-path="url(#clip1_1789_5177)">
<path d="M260.609 327.781H242.299C240.911 327.781 239.781 328.911 239.781 330.299V344.581C239.781 345.969 240.911 347.099 242.299 347.099H248.021V349.845H245.961C245.582 349.845 245.274 350.153 245.274 350.532C245.274 350.911 245.582 351.219 245.961 351.219H256.947C257.327 351.219 257.634 350.911 257.634 350.532C257.634 350.153 257.327 349.845 256.947 349.845H254.887V347.099H260.609C261.998 347.099 263.127 345.969 263.127 344.581V330.299C263.127 328.911 261.998 327.781 260.609 327.781ZM241.155 330.299C241.155 329.668 241.668 329.155 242.299 329.155H260.609C261.241 329.155 261.754 329.668 261.754 330.299V341.606H241.155V330.299ZM253.514 349.845H249.394V347.099H253.514V349.845ZM261.754 344.581C261.754 345.212 261.241 345.726 260.609 345.726H242.299C241.668 345.726 241.155 345.212 241.155 344.581V342.979H261.754V344.581Z" fill="#FFD961"/>
<path d="M258.32 330.574C256.807 330.574 255.806 332.163 256.464 333.526L255.115 334.909C254.331 334.519 253.373 334.665 252.738 335.305L250.739 334.343C250.947 333.081 249.969 331.948 248.707 331.948C247.254 331.948 246.25 333.424 246.797 334.777L245.431 336.249C244.069 335.635 242.527 336.639 242.527 338.127C242.527 339.263 243.451 340.187 244.587 340.187C246.123 340.187 247.117 338.559 246.424 337.197L247.712 335.81C248.465 336.228 249.412 336.136 250.074 335.546L252.151 336.546C252.028 337.764 252.988 338.814 254.2 338.814C255.697 338.814 256.7 337.257 256.072 335.895L257.437 334.495C258.798 335.143 260.38 334.145 260.38 332.634C260.38 331.498 259.456 330.574 258.32 330.574ZM244.587 338.814C244.209 338.814 243.901 338.506 243.901 338.127C243.901 337.749 244.209 337.441 244.587 337.441C244.966 337.441 245.274 337.749 245.274 338.127C245.274 338.506 244.966 338.814 244.587 338.814ZM248.707 334.694C248.329 334.694 248.021 334.386 248.021 334.007C248.021 333.629 248.329 333.321 248.707 333.321C249.086 333.321 249.394 333.629 249.394 334.007C249.394 334.386 249.086 334.694 248.707 334.694ZM254.2 337.441C253.822 337.441 253.514 337.133 253.514 336.754C253.514 336.375 253.822 336.067 254.2 336.067C254.579 336.067 254.887 336.375 254.887 336.754C254.887 337.133 254.579 337.441 254.2 337.441ZM258.32 333.321C257.942 333.321 257.634 333.013 257.634 332.634C257.634 332.256 257.942 331.948 258.32 331.948C258.699 331.948 259.007 332.256 259.007 332.634C259.007 333.013 258.699 333.321 258.32 333.321Z" fill="#FFD961"/>
</g>
<g opacity="0.57">
<path d="M329.773 421.651C329.815 421.655 329.855 421.667 329.893 421.683C329.931 421.702 329.967 421.724 329.996 421.753C330.035 421.79 330.072 421.83 330.107 421.872L333.185 425.763C333.161 425.532 333.148 425.301 333.148 425.07V421.638H334.474V428.115H333.69C333.59 428.118 333.49 428.1 333.397 428.063C333.305 428.017 333.226 427.95 333.166 427.866L330.111 424.012C330.12 424.124 330.127 424.233 330.133 424.342C330.139 424.45 330.142 424.551 330.142 424.646V428.12H328.818V421.638H329.609C329.663 421.638 329.719 421.642 329.773 421.651V421.651ZM336.415 423.504V426.429C336.415 426.658 336.466 426.834 336.57 426.958C336.686 427.089 336.854 427.157 337.029 427.146C337.175 427.146 337.32 427.115 337.453 427.052C337.592 426.984 337.723 426.895 337.837 426.789V423.504H339.216V428.114H338.363C338.288 428.12 338.214 428.101 338.152 428.059C338.09 428.016 338.044 427.954 338.023 427.883L337.939 427.616C337.853 427.701 337.761 427.779 337.664 427.85C337.468 427.993 337.244 428.093 337.006 428.145C336.873 428.174 336.736 428.188 336.599 428.187C336.37 428.191 336.142 428.146 335.932 428.055C335.742 427.972 335.574 427.847 335.44 427.689C335.303 427.526 335.2 427.338 335.137 427.134C335.068 426.906 335.033 426.669 335.035 426.431V423.504H336.415ZM340.105 428.115V423.504H340.959C341.035 423.501 341.11 423.522 341.174 423.561C341.234 423.604 341.278 423.665 341.297 423.735L341.37 423.984C341.445 423.906 341.526 423.831 341.61 423.762C341.694 423.694 341.784 423.637 341.88 423.589C342.09 423.482 342.323 423.428 342.558 423.431C342.807 423.421 343.051 423.497 343.25 423.646C343.437 423.797 343.581 423.996 343.664 424.222C343.738 424.086 343.833 423.961 343.947 423.857C344.056 423.759 344.176 423.677 344.307 423.612C344.438 423.55 344.575 423.504 344.716 423.475C344.857 423.446 345.001 423.431 345.145 423.431C345.385 423.426 345.623 423.466 345.848 423.548C346.043 423.621 346.219 423.738 346.361 423.891C346.504 424.05 346.612 424.238 346.675 424.443C346.749 424.682 346.786 424.932 346.782 425.184V428.114H345.403V425.186C345.403 424.708 345.198 424.471 344.789 424.471C344.617 424.465 344.448 424.532 344.325 424.655C344.202 424.777 344.14 424.954 344.14 425.186V428.115H342.763V425.186C342.763 424.922 342.712 424.736 342.608 424.631C342.504 424.524 342.351 424.471 342.149 424.471C342.026 424.471 341.906 424.499 341.796 424.554C341.68 424.614 341.575 424.691 341.483 424.781V428.117L340.105 428.115ZM349.086 425.95V428.115H347.583V421.638H349.868C350.266 421.629 350.663 421.683 351.044 421.799C351.341 421.89 351.617 422.041 351.853 422.243C352.06 422.427 352.222 422.657 352.323 422.915C352.424 423.182 352.474 423.466 352.471 423.75C352.474 424.054 352.421 424.356 352.315 424.641C352.214 424.906 352.051 425.144 351.839 425.334C351.604 425.54 351.327 425.694 351.028 425.785C350.653 425.902 350.262 425.958 349.868 425.951L349.086 425.95ZM349.086 424.817H349.868C350.259 424.817 350.542 424.724 350.713 424.537C350.884 424.349 350.971 424.091 350.971 423.755C350.973 423.617 350.95 423.48 350.905 423.35C350.862 423.232 350.793 423.124 350.703 423.037C350.604 422.945 350.488 422.875 350.36 422.833C350.201 422.782 350.035 422.757 349.868 422.76H349.086V424.817ZM355.142 429.312C355.111 429.391 355.06 429.46 354.994 429.515C354.907 429.564 354.808 429.586 354.708 429.578H353.674L354.565 427.712L352.725 423.504H353.942C354.031 423.5 354.119 423.526 354.191 423.579C354.248 423.621 354.291 423.68 354.316 423.747L355.072 425.735C355.142 425.913 355.199 426.096 355.244 426.284C355.275 426.189 355.307 426.095 355.342 426.004C355.378 425.913 355.413 425.818 355.445 425.724L356.131 423.746C356.156 423.674 356.205 423.614 356.269 423.574C356.336 423.53 356.413 423.505 356.493 423.505H357.604L355.142 429.312Z" fill="#FFD961"/>
<path d="M317.167 419.53L314.414 418.142L311.393 419.649L314.221 421.069L317.167 419.53ZM318.429 420.168L321.315 421.625L318.321 423.128L315.49 421.707L318.429 420.168ZM322.285 418.162L325.25 419.649L322.599 420.981L319.706 419.522L322.285 418.162ZM321.008 417.522L318.339 416.184L315.698 417.502L318.448 418.888L321.008 417.522ZM318.922 429.017V432.66L322.155 431.046L322.152 427.401L318.922 429.017ZM322.15 426.13L322.147 422.523L318.922 424.127V427.735L322.15 426.13ZM326.034 425.454V429.112L323.275 430.488L323.273 426.847L326.034 425.454ZM326.034 424.176V420.591L323.27 421.965L323.273 425.579L326.034 424.176Z" fill="#FFD961"/>
<path d="M317.78 424.129L315.604 423.033V427.766C315.604 427.766 312.939 422.097 312.693 421.589C312.661 421.523 312.53 421.45 312.497 421.432C312.016 421.181 310.617 420.473 310.617 420.473V428.838L312.554 429.875V425.501C312.554 425.501 315.189 430.567 315.215 430.622C315.243 430.678 315.507 431.211 315.79 431.399C316.166 431.648 317.779 432.619 317.779 432.619L317.78 424.129Z" fill="#FFD961"/>
</g>
</g>
<rect x="83.5" y="105.5" width="363" height="407" rx="34.5" stroke="#FFD54A" shape-rendering="crispEdges"/>
</g>
<defs>
<filter id="filter0_d_1789_5177" x="0.699997" y="0.699997" width="602.6" height="646.6" filterUnits="userSpaceOnUse" color-interpolation-filters="sRGB">
<feFlood flood-opacity="0" result="BackgroundImageFix"/>
<feColorMatrix in="SourceAlpha" type="matrix" values="0 0 0 0 0 0 0 0 0 0 0 0 0 0 0 0 0 0 127 0" result="hardAlpha"/>
<feOffset dx="37" dy="15"/>
<feGaussianBlur stdDeviation="59.65"/>
<feComposite in2="hardAlpha" operator="out"/>
<feColorMatrix type="matrix" values="0 0 0 0 1 0 0 0 0 0.803922 0 0 0 0 0.180392 0 0 0 0.78 0"/>
<feBlend mode="normal" in2="BackgroundImageFix" result="effect1_dropShadow_1789_5177"/>
<feBlend mode="normal" in="SourceGraphic" in2="effect1_dropShadow_1789_5177" result="shape"/>
</filter>
<filter id="filter1_b_1789_5177" x="210.3" y="301.3" width="246.4" height="246.4" filterUnits="userSpaceOnUse" color-interpolation-filters="sRGB">
<feFlood flood-opacity="0" result="BackgroundImageFix"/>
<feGaussianBlur in="BackgroundImageFix" stdDeviation="47.35"/>
<feComposite in2="SourceAlpha" operator="in" result="effect1_backgroundBlur_1789_5177"/>
<feBlend mode="normal" in="SourceGraphic" in2="effect1_backgroundBlur_1789_5177" result="shape"/>
</filter>
<filter id="filter2_b_1789_5177" x="5.3" y="110.3" width="277.021" height="280.056" filterUnits="userSpaceOnUse" color-interpolation-filters="sRGB">
<feFlood flood-opacity="0" result="BackgroundImageFix"/>
<feGaussianBlur in="BackgroundImageFix" stdDeviation="47.35"/>
<feComposite in2="SourceAlpha" operator="in" result="effect1_backgroundBlur_1789_5177"/>
<feBlend mode="normal" in="SourceGraphic" in2="effect1_backgroundBlur_1789_5177" result="shape"/>
</filter>
<filter id="filter3_b_1789_5177" x="126.577" y="56.4523" width="247.013" height="247.345" filterUnits="userSpaceOnUse" color-interpolation-filters="sRGB">
<feFlood flood-opacity="0" result="BackgroundImageFix"/>
<feGaussianBlur in="BackgroundImageFix" stdDeviation="47.35"/>
<feComposite in2="SourceAlpha" operator="in" result="effect1_backgroundBlur_1789_5177"/>
<feBlend mode="normal" in="SourceGraphic" in2="effect1_backgroundBlur_1789_5177" result="shape"/>
</filter>
<filter id="filter4_b_1789_5177" x="208.3" y="59.3" width="247.013" height="247.345" filterUnits="userSpaceOnUse" color-interpolation-filters="sRGB">
<feFlood flood-opacity="0" result="BackgroundImageFix"/>
<feGaussianBlur in="BackgroundImageFix" stdDeviation="47.35"/>
<feComposite in2="SourceAlpha" operator="in" result="effect1_backgroundBlur_1789_5177"/>
<feBlend mode="normal" in="SourceGraphic" in2="effect1_backgroundBlur_1789_5177" result="shape"/>
</filter>
<filter id="filter5_b_1789_5177" x="127.3" y="218.3" width="247.013" height="247.345" filterUnits="userSpaceOnUse" color-interpolation-filters="sRGB">
<feFlood flood-opacity="0" result="BackgroundImageFix"/>
<feGaussianBlur in="BackgroundImageFix" stdDeviation="47.35"/>
<feComposite in2="SourceAlpha" operator="in" result="effect1_backgroundBlur_1789_5177"/>
<feBlend mode="normal" in="SourceGraphic" in2="effect1_backgroundBlur_1789_5177" result="shape"/>
</filter>
<clipPath id="clip0_1789_5177">
<rect x="83" y="105" width="364" height="408" rx="35" fill="white"/>
</clipPath>
<clipPath id="clip1_1789_5177">
<rect width="25" height="25" fill="white" transform="translate(239 327)"/>
</clipPath>
</defs>
</svg>
