<svg width="364" height="408" viewBox="0 0 364 408" fill="none" xmlns="http://www.w3.org/2000/svg">
<g clip-path="url(#clip0_1782_5239)">
<rect width="364" height="408" rx="35" fill="url(#paint0_radial_1782_5239)"/>
<g filter="url(#filter0_b_1782_5239)">
<rect x="-23" y="103.895" width="116.055" height="100.932" rx="12" transform="rotate(-34 -23 103.895)" fill="#202835"/>
</g>
<g filter="url(#filter1_b_1782_5239)">
<rect x="148" y="178.898" width="116.055" height="100.932" rx="12" transform="rotate(-34 148 178.898)" fill="#202835"/>
</g>
<g filter="url(#filter2_b_1782_5239)">
<rect x="-18" y="289.898" width="116.055" height="100.932" rx="12" transform="rotate(-34 -18 289.898)" fill="#202835"/>
</g>
<g filter="url(#filter3_b_1782_5239)">
<rect x="214" y="357.898" width="116.055" height="100.932" rx="12" transform="rotate(-34 214 357.898)" fill="#202835"/>
</g>
<g filter="url(#filter4_b_1782_5239)">
<rect x="141" y="-0.101562" width="116.055" height="100.932" rx="12" transform="rotate(-34 141 -0.101562)" fill="#202835"/>
</g>
<g clip-path="url(#clip1_1782_5239)">
<path d="M56.8951 118.95C60.5032 118.45 63.0275 115.156 62.5333 111.594C62.0391 108.032 58.7135 105.55 55.1053 106.051C51.4972 106.551 48.9729 109.845 49.4671 113.407C49.9614 116.969 53.287 119.451 56.8951 118.95Z" fill="#79FFFF"/>
<path fill-rule="evenodd" clip-rule="evenodd" d="M27.5781 113.047C26.3405 114.501 25.9156 115.797 26.0701 116.91C26.2245 118.023 26.9862 119.155 28.573 120.218C30.1597 121.28 32.4452 122.181 35.3234 122.833C41.0699 124.133 48.8864 124.375 57.3885 123.196C65.8906 122.016 73.3461 119.655 78.5214 116.839C81.1134 115.429 83.0674 113.94 84.3048 112.485C85.5424 111.031 85.9673 109.734 85.8129 108.621C85.6584 107.508 84.8967 106.377 83.3099 105.314C81.7232 104.252 79.4377 103.351 76.5595 102.699C70.813 101.398 62.9965 101.156 54.4944 102.336C45.9923 103.516 38.5368 105.877 33.3615 108.693C30.7695 110.103 28.8156 111.592 27.5781 113.047ZM32.0428 106.318C37.58 103.305 45.3749 100.863 54.1217 99.6498C62.8684 98.4363 71.0335 98.6632 77.1819 100.055C80.2512 100.75 82.8915 101.751 84.8565 103.067C86.8213 104.383 88.2372 106.106 88.5338 108.244C88.8304 110.382 87.9371 112.425 86.4047 114.226C84.8722 116.027 82.6043 117.71 79.8401 119.214C74.3029 122.227 66.508 124.668 57.7613 125.882C49.0145 127.096 40.8494 126.869 34.701 125.477C31.6317 124.782 28.9914 123.781 27.0264 122.465C25.0616 121.149 23.6457 119.426 23.3491 117.288C23.0525 115.15 23.9458 113.107 25.4782 111.306C27.0107 109.504 29.2786 107.822 32.0428 106.318Z" fill="#79FFFF"/>
<path fill-rule="evenodd" clip-rule="evenodd" d="M41.5979 88.6462C39.7075 88.3192 38.3599 88.6078 37.4607 89.2998C36.5616 89.9918 35.948 91.2126 35.8049 93.1045C35.6618 94.9963 36.0078 97.4045 36.8669 100.194C38.5823 105.764 42.2548 112.572 47.5144 119.252C52.7741 125.931 58.5492 131.121 63.5903 134.131C66.1152 135.639 68.3918 136.561 70.282 136.888C72.1724 137.215 73.52 136.927 74.4192 136.235C75.3183 135.543 75.9319 134.322 76.075 132.43C76.2181 130.538 75.8721 128.13 75.013 125.34C73.2976 119.77 69.6251 112.962 64.3655 106.283C59.1058 99.6036 53.3307 94.4137 48.2896 91.4033C45.7647 89.8956 43.4881 88.9732 41.5979 88.6462ZM49.7165 89.0806C55.1102 92.3015 61.1245 97.7413 66.5355 104.613C71.9465 111.485 75.8054 118.583 77.6407 124.543C78.5569 127.518 78.991 130.28 78.8138 132.623C78.6366 134.965 77.8295 137.043 76.1024 138.372C74.3753 139.702 72.1397 139.965 69.7991 139.56C67.4582 139.156 64.856 138.062 62.1634 136.454C56.7697 133.233 50.7554 127.793 45.3444 120.922C39.9334 114.05 36.0745 106.951 34.2392 100.992C33.323 98.0169 32.8889 95.2546 33.0661 92.9118C33.2433 90.5692 34.0504 88.4914 35.7775 87.1622C37.5046 85.833 39.7402 85.5693 42.0808 85.9741C44.4217 86.379 47.0239 87.4727 49.7165 89.0806Z" fill="#79FFFF"/>
<path fill-rule="evenodd" clip-rule="evenodd" d="M69.9632 88.3652C69.3104 86.5837 68.3876 85.5761 67.334 85.155C66.2805 84.734 64.9051 84.8231 63.1752 85.6524C61.4454 86.4816 59.5059 87.989 57.4869 90.1272C53.4558 94.3963 49.3117 100.962 46.0693 108.821C42.8268 116.681 41.1465 124.231 41.0123 130.058C40.9452 132.976 41.2678 135.387 41.9205 137.169C42.5733 138.95 43.4961 139.958 44.5497 140.379C45.6033 140.8 46.9786 140.711 48.7085 139.882C50.4383 139.052 52.3778 137.545 54.3968 135.407C58.428 131.138 62.572 124.572 65.8145 116.712C69.0569 108.853 70.7373 101.303 70.8714 95.4762C70.9386 92.558 70.6159 90.1466 69.9632 88.3652ZM73.617 95.5284C73.4735 101.762 71.693 109.643 68.3572 117.729C65.0214 125.814 60.7153 132.686 56.4022 137.253C54.2491 139.533 52.0429 141.294 49.9007 142.321C47.7587 143.348 45.5357 143.703 43.512 142.894C41.4882 142.085 40.146 140.306 39.3377 138.1C38.5294 135.894 38.195 133.118 38.2667 130.006C38.4102 123.771 40.1907 115.89 43.5265 107.805C46.8623 99.7201 51.1684 92.8484 55.4816 88.2807C57.6347 86.0005 59.8409 84.2397 61.9831 83.2128C64.1251 82.1859 66.348 81.8311 68.3717 82.6399C70.3955 83.4486 71.7377 85.2283 72.546 87.4342C73.3543 89.6402 73.6887 92.4164 73.617 95.5284Z" fill="#79FFFF"/>
</g>
<g clip-path="url(#clip2_1782_5239)">
<path d="M297.912 391.799C301.766 389.2 302.778 383.994 300.178 380.14L295.482 373.178L288.519 377.874C284.666 380.473 283.654 385.679 286.253 389.533C288.852 393.387 294.058 394.399 297.912 391.799Z" fill="#0ACF83"/>
<path d="M276.86 375.607C274.261 371.753 275.273 366.548 279.127 363.948L286.089 359.252L295.482 373.177L288.519 377.873C284.666 380.473 279.46 379.461 276.86 375.607Z" fill="#A259FF"/>
<path d="M267.468 361.681C264.868 357.828 265.88 352.622 269.734 350.022L276.697 345.326L286.089 359.251L279.127 363.948C275.273 366.547 270.067 365.535 267.468 361.681Z" fill="#F24E1E"/>
<path d="M276.697 345.324L283.66 340.628C287.514 338.028 292.719 339.04 295.319 342.894C297.918 346.748 296.906 351.954 293.053 354.553L286.09 359.249L276.697 345.324Z" fill="#FF7262"/>
<path d="M304.711 356.82C307.311 360.674 306.299 365.88 302.445 368.479C298.591 371.078 293.386 370.066 290.786 366.213C288.187 362.359 289.199 357.153 293.052 354.554C296.906 351.954 302.112 352.966 304.711 356.82Z" fill="#1ABCFE"/>
</g>
<path opacity="0.84" d="M185 -2.50781L213.28 32.2896L230.873 26.3829L242.984 12.2606L221.314 -27.0019L185 -2.50781ZM220.353 -13.599L221.744 -11.0903L222.386 -9.94237L204.989 1.79157L208.524 6.13598L225.091 -5.03895L225.754 -3.81755L232.733 8.83359L233.16 9.63645L225.573 18.4783L225.573 18.4789L225.566 18.4924L214.605 22.3184L209.248 15.7399L213.812 12.6618L216.568 16.0505L222.527 13.9925L222.541 13.9829L222.419 13.8026L226.628 9.10145L223.241 2.93738L207.486 13.5647L197.875 1.72761L196.902 0.518282L219.674 -14.8416L220.353 -13.599Z" fill="#E44D26"/>
<path d="M25.2871 291.367L55.3161 328.331L73.9905 322.111L86.7858 307.081L63.7764 265.406L25.2871 291.367ZM62.5762 279.324L70.2469 293.212L70.298 293.28L70.4029 293.446L70.402 293.445L75.7523 303.164L76.2099 304.039L68.173 313.436L68.1733 313.437L68.1701 313.448L56.4535 317.353L50.6772 310.23L55.5138 306.968L58.4545 310.587L64.7946 308.424L64.7951 308.428L64.7946 308.428L69.1809 303.325L65.5195 296.671L54.2727 304.257L53.4611 303.262L51.5661 300.926L50.5512 299.67L62.6572 291.505L59.8077 286.331L41.3692 298.767L40.5581 297.773L38.663 295.437L37.6478 294.181L61.784 277.901L62.5762 279.324V279.324Z" fill="#1572B6"/>
<path fill-rule="evenodd" clip-rule="evenodd" d="M216.229 172.995C210.301 176.993 208.482 182.287 210.77 188.876C211.108 184.582 212.994 181.784 216.429 180.484C218.389 179.742 220.378 180.084 222.58 180.462C226.166 181.078 230.317 181.791 235.827 178.075C241.755 174.076 243.574 168.783 241.286 162.193C240.948 166.487 239.062 169.285 235.626 170.585C233.667 171.328 231.677 170.985 229.476 170.607C225.89 169.991 221.739 169.278 216.229 172.995ZM213.598 193.068C207.67 197.067 205.85 202.361 208.139 208.95C208.477 204.656 210.363 201.858 213.798 200.558C215.758 199.816 217.747 200.158 219.949 200.536C223.535 201.152 227.686 201.865 233.196 198.149C239.123 194.15 240.943 188.856 238.655 182.267C238.317 186.561 236.43 189.359 232.995 190.659C231.036 191.401 229.046 191.059 226.845 190.681C223.258 190.065 219.107 189.352 213.598 193.068Z" fill="#56D4CC"/>
</g>
<defs>
<filter id="filter0_b_1782_5239" x="-113.042" y="-51.0437" width="332.738" height="328.658" filterUnits="userSpaceOnUse" color-interpolation-filters="sRGB">
<feFlood flood-opacity="0" result="BackgroundImageFix"/>
<feGaussianBlur in="BackgroundImageFix" stdDeviation="47.35"/>
<feComposite in2="SourceAlpha" operator="in" result="effect1_backgroundBlur_1782_5239"/>
<feBlend mode="normal" in="SourceGraphic" in2="effect1_backgroundBlur_1782_5239" result="shape"/>
</filter>
<filter id="filter1_b_1782_5239" x="57.9582" y="23.9602" width="332.738" height="328.658" filterUnits="userSpaceOnUse" color-interpolation-filters="sRGB">
<feFlood flood-opacity="0" result="BackgroundImageFix"/>
<feGaussianBlur in="BackgroundImageFix" stdDeviation="47.35"/>
<feComposite in2="SourceAlpha" operator="in" result="effect1_backgroundBlur_1782_5239"/>
<feBlend mode="normal" in="SourceGraphic" in2="effect1_backgroundBlur_1782_5239" result="shape"/>
</filter>
<filter id="filter2_b_1782_5239" x="-108.042" y="134.96" width="332.738" height="328.658" filterUnits="userSpaceOnUse" color-interpolation-filters="sRGB">
<feFlood flood-opacity="0" result="BackgroundImageFix"/>
<feGaussianBlur in="BackgroundImageFix" stdDeviation="47.35"/>
<feComposite in2="SourceAlpha" operator="in" result="effect1_backgroundBlur_1782_5239"/>
<feBlend mode="normal" in="SourceGraphic" in2="effect1_backgroundBlur_1782_5239" result="shape"/>
</filter>
<filter id="filter3_b_1782_5239" x="123.958" y="202.96" width="332.738" height="328.658" filterUnits="userSpaceOnUse" color-interpolation-filters="sRGB">
<feFlood flood-opacity="0" result="BackgroundImageFix"/>
<feGaussianBlur in="BackgroundImageFix" stdDeviation="47.35"/>
<feComposite in2="SourceAlpha" operator="in" result="effect1_backgroundBlur_1782_5239"/>
<feBlend mode="normal" in="SourceGraphic" in2="effect1_backgroundBlur_1782_5239" result="shape"/>
</filter>
<filter id="filter4_b_1782_5239" x="50.9582" y="-155.04" width="332.738" height="328.658" filterUnits="userSpaceOnUse" color-interpolation-filters="sRGB">
<feFlood flood-opacity="0" result="BackgroundImageFix"/>
<feGaussianBlur in="BackgroundImageFix" stdDeviation="47.35"/>
<feComposite in2="SourceAlpha" operator="in" result="effect1_backgroundBlur_1782_5239"/>
<feBlend mode="normal" in="SourceGraphic" in2="effect1_backgroundBlur_1782_5239" result="shape"/>
</filter>
<radialGradient id="paint0_radial_1782_5239" cx="0" cy="0" r="1" gradientUnits="userSpaceOnUse" gradientTransform="translate(213.5 18.5) rotate(82.8317) scale(492.852 439.701)">
<stop stop-color="#131D2C"/>
<stop offset="1" stop-color="#000B1D"/>
</radialGradient>
<clipPath id="clip0_1782_5239">
<rect width="364" height="408" rx="35" fill="white"/>
</clipPath>
<clipPath id="clip1_1782_5239">
<rect width="74" height="65" fill="white" transform="translate(14.8848 85.3945) rotate(-7.89911)"/>
</clipPath>
<clipPath id="clip2_1782_5239">
<rect width="50" height="50" fill="white" transform="translate(255 359.961) rotate(-34)"/>
</clipPath>
</defs>
</svg>
